{"glyphs":{"0":{"ha":971,"x_min":14,"x_max":954,"o":"m 839 944 q 907 920 875 944 q 949 861 939 896 q 949 775 949 833 q 951 644 950 717 q 952 490 951 571 q 953 337 953 410 q 954 206 954 264 q 954 119 954 147 l 954 117 q 944 74 954 94 q 918 38 935 54 q 881 13 901 22 q 839 4 860 4 l 129 4 q 86 14 107 4 q 49 40 65 24 q 24 76 33 56 q 14 119 14 97 l 14 829 q 20 863 14 843 q 38 899 26 882 q 65 927 50 915 q 99 939 81 939 l 839 944 l 839 944 m 261 161 q 267 157 261 157 l 707 157 q 735 163 719 157 q 765 180 751 169 q 788 203 778 190 q 797 231 797 217 l 797 703 l 261 167 l 261 165 l 261 161 m 171 246 l 713 788 l 240 788 q 212 777 225 788 q 188 752 199 767 q 172 722 178 738 q 167 693 167 706 l 167 257 l 171 246 z "},"1":{"ha":308,"x_min":14,"x_max":292,"o":"m 129 603 q 141 640 140 619 q 142 679 142 660 q 141 699 142 686 q 140 713 140 711 l 124 744 l 40 833 q 31 849 32 842 q 29 867 29 857 q 47 911 29 896 q 88 933 64 926 q 138 942 113 940 q 182 943 164 943 q 218 935 199 943 q 254 915 238 928 q 281 884 271 901 q 292 849 292 867 l 292 99 q 277 56 292 74 q 242 26 263 38 q 197 9 221 14 q 153 4 172 4 q 109 9 133 4 q 64 26 85 14 q 28 56 43 38 q 14 99 14 74 l 14 456 q 23 483 14 467 q 40 508 32 499 q 57 527 44 514 q 84 556 69 540 q 111 584 99 571 q 129 603 124 597 z "},"2":{"ha":971,"x_min":14,"x_max":954,"o":"m 35 868 q 53 915 35 892 q 99 939 72 939 l 839 944 q 907 920 875 944 q 949 861 939 896 q 949 791 949 840 q 951 686 950 742 q 953 582 953 631 q 954 514 954 533 l 954 511 q 944 469 954 490 q 918 432 935 449 q 881 406 901 415 q 839 396 860 396 l 371 396 q 358 389 369 396 q 340 378 346 382 q 306 332 315 358 q 297 278 297 306 q 303 235 297 257 q 322 195 310 213 q 353 166 335 178 q 397 154 372 154 l 871 154 q 892 147 881 154 q 913 130 904 140 q 928 108 922 119 q 935 86 935 96 q 905 26 935 49 q 839 4 875 4 l 129 4 q 86 14 107 4 q 49 40 65 24 q 24 76 33 56 q 14 119 14 97 l 14 435 q 22 468 14 449 q 41 506 29 488 q 68 536 53 524 q 99 549 83 549 l 707 549 q 735 556 719 549 q 764 573 750 563 q 788 597 778 583 q 797 624 797 611 l 797 719 q 790 740 797 728 q 772 764 782 753 q 749 783 761 775 q 729 790 738 790 l 129 790 q 97 796 114 790 q 67 812 81 801 q 44 837 53 822 q 35 868 35 851 z "},"3":{"ha":950,"x_min":14,"x_max":933,"o":"m 14 81 q 19 103 14 90 q 34 128 25 117 q 54 147 43 139 q 76 154 65 154 l 556 154 q 606 170 588 154 q 635 210 625 186 q 647 260 644 233 q 650 308 650 288 q 640 335 647 319 q 624 363 633 350 q 602 386 614 376 q 576 396 590 396 l 371 396 q 339 402 356 396 q 308 419 322 408 q 285 444 294 429 q 276 475 276 458 q 282 498 276 485 q 297 522 288 511 q 317 541 306 533 q 340 549 329 549 l 556 549 q 606 565 588 549 q 635 604 625 581 q 647 655 644 628 q 650 703 650 682 q 640 729 647 714 q 624 758 633 744 q 602 781 614 771 q 576 790 590 790 l 108 790 q 75 796 92 790 q 45 812 58 801 q 23 837 32 822 q 14 868 14 851 q 33 914 14 896 q 76 940 51 932 l 146 940 q 255 941 193 940 q 382 942 317 942 q 508 944 447 943 q 615 944 569 944 l 686 944 l 690 944 q 722 937 703 944 q 758 917 740 929 q 788 890 775 904 q 800 861 800 875 l 800 650 q 803 637 800 646 q 810 618 806 628 q 817 601 814 608 q 824 593 821 594 l 913 499 q 928 427 928 467 q 930 332 929 388 q 932 217 931 276 q 933 119 933 158 l 933 114 q 923 73 933 93 q 897 38 913 53 q 860 13 881 22 q 818 4 839 4 l 108 4 q 75 10 92 4 q 45 25 58 15 q 23 49 32 35 q 14 81 14 63 z "},"4":{"ha":950,"x_min":14,"x_max":935,"o":"m 90 925 q 113 919 100 925 q 138 904 126 914 q 156 883 149 894 q 164 861 164 872 l 164 519 q 173 483 164 500 q 197 451 182 465 q 229 428 211 436 q 267 419 247 419 l 576 419 q 602 426 586 419 q 633 444 618 433 q 658 468 647 456 q 668 493 668 481 l 668 829 q 674 862 668 844 q 691 893 681 879 q 716 916 701 907 q 747 925 731 925 q 770 919 757 925 q 794 904 783 914 q 813 883 806 894 q 821 861 821 872 l 821 519 q 824 506 821 515 q 830 488 826 497 q 838 470 833 478 q 844 461 842 463 q 934 360 933 367 q 935 350 935 353 l 935 332 q 928 314 935 321 l 844 225 q 829 199 833 214 q 824 169 825 185 q 823 138 822 153 q 824 110 824 122 q 808 62 821 82 q 774 29 794 42 q 730 10 754 17 q 682 4 706 4 q 615 15 644 4 q 561 57 585 25 q 540 103 543 79 q 536 151 538 128 q 528 199 535 175 q 497 246 522 224 q 482 256 494 249 q 465 264 469 264 l 129 264 q 86 274 107 264 q 49 301 65 285 q 24 340 33 318 q 14 382 14 361 l 14 829 q 19 863 14 846 q 35 893 25 879 q 59 916 44 907 q 90 925 74 925 z "},"5":{"ha":971,"x_min":14,"x_max":954,"o":"m 35 81 q 40 103 35 90 q 55 128 46 117 q 76 147 64 139 q 99 154 88 154 l 576 154 q 627 170 608 154 q 656 210 646 186 q 668 260 665 233 q 671 308 671 288 q 661 335 668 319 q 644 363 654 350 q 623 386 635 376 q 597 396 611 396 l 129 396 q 86 406 107 396 q 49 433 65 417 q 24 472 33 450 q 14 514 14 493 l 14 829 q 21 863 14 843 q 39 899 28 882 q 66 927 50 915 q 99 939 82 939 l 839 944 q 870 940 853 944 q 901 925 888 935 q 925 903 915 915 q 935 874 935 890 q 905 814 935 838 q 839 790 875 790 l 240 790 q 226 783 238 790 q 208 771 214 775 q 175 726 185 753 q 165 671 165 700 q 172 628 165 650 q 191 589 178 607 q 223 560 204 571 q 267 549 242 549 l 871 549 q 893 539 881 549 q 917 516 906 529 q 938 489 929 503 q 949 467 946 475 q 949 398 949 447 q 951 293 950 349 q 953 188 953 238 q 954 119 954 139 l 954 114 q 944 73 954 93 q 917 38 933 53 q 881 13 901 22 q 839 4 860 4 l 129 4 q 96 10 113 4 q 66 25 79 15 q 44 49 53 35 q 35 81 35 63 z "},"6":{"ha":971,"x_min":14,"x_max":954,"o":"m 839 944 q 870 940 853 944 q 901 925 888 935 q 925 903 915 915 q 935 874 935 890 q 905 814 935 838 q 839 790 875 790 l 240 790 q 226 783 238 790 q 208 771 214 775 q 175 726 185 753 q 165 671 165 700 q 172 628 165 650 q 191 589 178 607 q 223 560 204 571 q 267 549 242 549 l 871 549 q 893 539 881 549 q 917 516 906 529 q 938 489 929 503 q 949 467 946 475 q 949 398 949 447 q 951 293 950 349 q 953 188 953 238 q 954 119 954 139 l 954 114 q 944 73 954 93 q 917 38 933 53 q 881 13 901 22 q 839 4 860 4 l 129 4 q 86 14 107 4 q 49 40 65 24 q 24 76 33 56 q 14 119 14 97 l 14 829 q 21 863 14 843 q 39 899 28 882 q 66 927 50 915 q 99 939 82 939 l 839 944 l 839 944 m 165 278 q 172 234 165 256 q 191 195 178 213 q 223 167 204 178 q 267 157 242 157 l 707 157 q 758 172 739 157 q 786 210 776 188 q 799 260 796 233 q 801 308 801 286 q 792 334 799 319 q 776 362 786 349 q 755 384 767 375 q 729 393 743 393 l 240 393 q 206 381 219 393 q 183 350 192 368 q 169 312 174 332 q 165 278 165 292 z "},"7":{"ha":950,"x_min":14,"x_max":933,"o":"m 671 499 q 689 517 676 504 q 716 545 701 531 q 743 574 731 560 q 760 593 756 588 q 780 647 779 614 q 781 703 781 679 q 772 729 778 714 q 756 758 765 744 q 734 781 746 771 q 708 790 722 790 l 108 790 q 75 796 92 790 q 45 812 58 801 q 23 837 32 822 q 14 868 14 851 q 33 915 14 892 q 76 940 51 939 l 818 944 q 854 938 836 944 q 887 920 872 932 q 913 893 901 908 q 928 861 924 878 q 928 775 928 833 q 930 644 929 717 q 931 490 931 571 q 933 337 932 410 q 933 206 933 264 q 933 119 933 147 l 933 114 q 920 65 933 85 q 886 31 907 44 q 840 10 865 17 q 792 4 815 4 q 741 11 767 4 q 695 32 715 18 q 663 68 675 46 q 650 119 650 90 l 650 435 q 657 467 650 450 q 671 499 664 485 z "},"8":{"ha":971,"x_min":14,"x_max":954,"o":"m 35 499 q 53 517 40 504 q 80 545 65 531 q 107 574 94 560 q 124 593 119 588 q 128 599 125 594 q 134 608 131 603 q 140 617 138 613 q 143 624 143 622 l 143 829 q 151 862 143 843 q 170 898 158 881 q 197 927 182 915 q 229 939 213 939 l 707 944 q 740 937 721 944 q 778 917 760 929 q 808 890 796 906 q 821 861 821 875 l 821 650 q 824 637 821 646 q 831 618 826 628 q 838 601 835 608 q 844 593 842 594 l 933 499 l 949 467 q 951 332 950 388 q 953 217 951 276 q 954 119 954 158 l 954 114 q 944 73 954 93 q 917 38 933 53 q 881 13 901 22 q 839 4 860 4 l 129 4 q 86 14 107 4 q 49 40 65 24 q 24 76 33 56 q 14 119 14 97 l 14 435 q 21 467 14 450 q 35 499 28 485 m 165 278 q 172 234 165 256 q 191 195 178 213 q 223 167 204 178 q 267 157 242 157 l 576 157 q 627 172 608 157 q 656 210 646 188 q 668 260 665 233 q 671 308 671 286 q 662 334 668 319 q 646 362 656 349 q 624 384 636 375 q 597 393 611 393 l 240 393 q 206 381 219 393 q 183 350 192 368 q 169 312 174 332 q 165 278 165 292 m 297 671 q 303 628 297 650 q 322 590 310 607 q 353 561 335 572 q 397 550 372 550 l 576 550 q 627 565 608 550 q 656 603 646 581 q 668 653 665 626 q 671 703 671 679 q 662 728 668 714 q 646 756 656 743 q 624 778 636 769 q 597 788 611 788 l 371 788 q 338 775 351 788 q 315 744 324 763 q 301 706 306 726 q 297 671 297 686 z "},"9":{"ha":971,"x_min":14,"x_max":954,"o":"m 839 944 q 907 920 875 944 q 949 861 939 896 q 949 775 949 833 q 951 644 950 717 q 952 490 951 571 q 953 337 953 410 q 954 206 954 264 q 954 119 954 147 l 954 114 q 941 65 954 85 q 907 31 928 44 q 861 10 886 17 q 813 4 836 4 q 762 11 788 4 q 716 32 736 18 q 683 68 696 46 q 671 119 671 90 l 671 308 q 664 335 671 319 q 646 363 657 350 q 622 386 635 376 q 597 396 610 396 l 129 396 q 86 406 107 396 q 49 433 65 417 q 24 472 33 450 q 14 514 14 493 l 14 829 q 21 863 14 844 q 39 899 28 882 q 66 927 50 915 q 99 939 82 939 l 839 944 l 839 944 m 165 671 q 172 628 165 650 q 191 590 178 607 q 223 561 204 572 q 267 550 242 550 l 707 550 q 758 565 739 550 q 786 603 776 581 q 799 653 796 626 q 801 703 801 679 q 792 728 799 714 q 776 756 786 743 q 755 778 767 769 q 729 788 743 788 l 240 788 q 206 775 219 788 q 183 744 192 763 q 169 706 174 726 q 165 671 165 686 z "}," ":{"ha":694,"x_min":0,"x_max":0,"o":""},"!":{"ha":308,"x_min":14,"x_max":292,"o":"m 29 81 q 35 104 29 92 q 51 127 42 117 q 73 144 61 138 q 97 151 85 151 l 208 151 q 233 144 221 151 q 256 127 246 138 q 271 104 265 117 q 276 79 276 92 q 263 41 276 56 q 231 18 250 26 q 191 7 213 10 q 153 4 169 4 q 113 8 135 4 q 73 19 92 11 q 42 42 54 28 q 29 81 29 57 m 182 943 q 218 935 199 943 q 254 915 238 928 q 281 884 271 901 q 292 849 292 867 l 292 624 q 283 595 292 611 q 265 571 274 579 q 249 553 261 565 q 224 526 238 540 q 199 499 211 511 q 182 482 186 486 q 167 428 169 461 q 158 365 164 396 q 138 310 153 333 q 88 288 124 288 q 62 294 75 288 q 38 310 49 300 q 21 334 28 321 q 14 361 14 347 l 14 843 q 32 896 14 876 q 76 926 50 915 q 131 940 101 936 q 182 943 160 943 z "},"\"":{"ha":703,"x_min":14,"x_max":686,"o":"m 35 714 q 17 759 19 736 q 14 807 14 782 q 33 888 14 850 q 99 940 51 926 q 115 941 103 940 q 140 943 126 942 q 166 945 154 944 q 182 946 178 946 l 185 946 q 217 939 199 946 q 253 920 236 932 q 281 893 269 908 q 292 861 292 878 l 292 551 q 285 526 292 539 q 267 505 278 514 q 244 490 257 496 q 221 483 232 483 q 178 499 192 483 q 158 536 165 514 q 144 581 150 558 q 124 619 138 604 q 107 639 119 625 q 80 667 94 653 q 53 695 65 682 q 35 714 40 708 m 429 714 q 410 759 414 736 q 407 807 407 782 q 426 888 407 850 q 492 940 446 926 q 508 941 496 940 q 534 943 521 942 q 560 945 547 944 q 576 946 572 946 q 610 939 590 946 q 646 921 629 932 q 674 894 663 910 q 686 861 686 879 l 686 551 q 679 526 686 539 q 662 505 672 514 q 639 490 651 496 q 615 483 626 483 q 573 499 586 483 q 552 536 560 514 q 538 581 544 558 q 518 619 532 604 q 501 639 514 625 q 474 667 489 653 q 447 695 460 682 q 429 714 435 708 z "},"#":{"ha":929,"x_min":14,"x_max":914,"o":"m 119 125 l 114 131 q 80 140 97 135 q 48 156 63 146 q 24 179 33 165 q 14 213 14 193 q 31 253 14 239 q 67 276 47 268 q 103 290 86 285 q 119 304 119 296 l 119 646 q 103 658 119 653 q 67 673 86 664 q 31 697 47 682 q 14 738 14 711 q 28 782 14 768 q 62 801 43 796 q 97 810 81 807 q 119 824 114 813 q 128 858 122 840 q 143 890 133 875 q 167 915 153 906 q 200 925 181 925 q 243 908 229 925 q 265 869 257 890 q 281 831 274 849 q 308 814 289 814 l 613 814 q 644 831 635 814 q 660 869 653 849 q 681 908 668 890 q 726 925 694 925 q 769 910 756 925 q 790 876 783 894 q 799 840 796 857 q 813 819 803 824 q 844 806 826 811 q 878 792 863 800 q 903 772 893 785 q 914 738 914 760 q 897 694 914 708 q 858 672 879 681 q 820 656 838 664 q 803 629 803 647 l 803 319 q 820 292 803 300 q 858 276 838 285 q 897 255 879 268 q 914 213 914 242 q 899 169 914 183 q 865 149 883 156 q 829 138 846 142 q 808 125 813 133 q 794 92 800 110 q 781 60 789 75 q 761 35 774 44 q 726 25 749 25 q 686 42 701 25 q 661 78 671 58 q 646 114 651 97 q 635 131 640 131 l 424 131 q 414 119 419 131 q 403 95 408 108 q 393 70 397 82 q 388 57 389 58 q 334 15 364 25 q 267 4 304 4 q 119 125 144 4 m 406 467 l 406 319 q 417 298 406 308 q 440 288 429 288 l 618 288 q 633 292 621 288 q 644 304 644 297 l 644 646 l 635 656 l 293 656 q 283 647 283 656 q 282 633 282 638 q 297 593 282 613 q 315 573 303 586 q 342 545 328 560 q 369 517 357 531 q 388 499 382 504 l 406 467 z "},"$":{"ha":965,"x_min":14,"x_max":949,"o":"m 35 211 q 50 252 35 238 q 90 267 65 267 q 105 267 97 267 q 119 261 113 268 l 208 178 l 208 378 l 193 393 q 132 399 164 394 q 74 417 100 404 q 31 453 49 429 q 14 514 14 476 l 14 703 q 21 734 14 714 q 35 761 28 754 l 197 924 l 229 939 l 707 944 q 741 939 721 944 q 771 924 761 933 l 928 765 q 934 752 935 760 q 933 738 933 744 q 918 697 933 711 q 878 682 903 682 q 863 681 871 682 q 849 688 856 681 l 760 771 l 728 788 l 644 788 l 629 771 l 629 571 q 641 558 629 564 q 660 550 653 551 q 675 549 664 550 q 699 548 686 549 q 723 547 711 547 q 739 546 735 546 l 771 529 l 933 367 l 949 335 l 949 219 l 933 188 l 771 25 q 741 10 761 15 q 707 4 721 4 l 261 4 q 227 10 247 4 q 197 25 207 15 l 40 183 q 34 197 33 189 q 35 211 35 204 m 365 378 l 365 178 q 372 165 365 169 q 388 159 379 161 q 405 156 396 157 q 418 156 414 156 q 431 156 422 156 q 449 159 440 157 q 464 165 457 161 q 471 178 471 169 l 471 378 l 456 393 l 382 393 l 365 378 m 629 372 l 629 181 q 641 188 635 181 q 653 203 647 194 q 662 219 658 211 q 665 231 665 228 l 665 325 q 662 334 665 326 q 653 350 658 342 q 642 365 647 358 q 631 372 636 372 l 629 372 m 365 771 l 365 571 q 379 555 365 560 q 404 550 393 550 l 418 550 l 431 550 q 457 555 443 550 q 471 571 471 560 l 471 771 l 456 788 l 382 788 l 365 771 m 165 671 q 167 648 165 664 q 174 616 169 632 q 188 588 179 600 q 208 575 196 575 l 208 768 q 188 756 196 768 q 174 727 179 743 q 167 695 169 711 q 165 671 165 679 z "},"%":{"ha":965,"x_min":14,"x_max":949,"o":"m 624 10 q 563 51 588 21 q 539 119 539 82 l 539 308 q 546 340 539 322 q 565 375 553 358 q 592 403 576 392 q 624 414 607 414 l 869 414 q 894 406 881 414 q 920 385 908 397 q 940 358 932 372 q 949 335 949 344 l 949 89 q 937 56 949 71 q 908 28 925 40 q 872 10 892 17 q 839 4 853 4 l 654 4 q 639 6 651 4 q 624 10 626 8 m 35 81 q 34 95 35 88 q 40 110 33 103 l 849 918 q 863 924 856 925 q 878 924 871 924 q 918 908 903 924 q 933 868 933 893 q 934 853 933 861 q 928 839 935 846 l 119 31 q 105 24 113 24 q 90 25 97 25 q 50 40 65 25 q 35 81 35 56 m 692 211 q 703 167 692 179 q 747 156 715 156 l 758 156 q 783 158 769 156 q 797 172 797 161 l 797 251 l 786 261 l 707 261 q 694 247 696 261 q 692 222 692 233 l 692 211 l 692 211 m 99 939 q 141 940 111 939 q 206 942 171 940 q 271 944 240 943 q 314 944 301 944 l 317 944 q 349 938 331 944 q 385 919 368 931 q 413 892 401 907 q 424 860 424 876 l 424 614 q 412 581 424 596 q 383 553 400 565 q 347 535 367 542 q 314 529 328 529 l 129 529 q 86 539 107 529 q 49 565 65 549 q 24 601 33 581 q 14 644 14 622 l 14 835 q 40 899 14 869 q 99 939 67 929 m 165 738 q 176 694 165 707 q 218 682 188 682 l 231 682 q 256 684 242 682 q 271 697 271 686 l 271 776 l 261 788 l 182 788 q 168 774 171 788 q 165 749 165 760 l 165 738 l 165 738 z "},"&":{"ha":950,"x_min":14,"x_max":935,"o":"m 146 940 q 218 941 176 940 q 303 942 260 942 q 388 944 346 943 q 460 944 429 944 l 508 944 l 511 944 q 544 939 526 944 q 576 924 561 933 q 599 899 590 914 q 608 868 608 885 q 599 838 608 853 q 576 813 590 824 q 544 797 561 803 q 513 790 528 790 l 182 790 q 172 777 176 790 q 167 761 167 764 l 167 646 q 173 618 167 635 q 188 593 179 601 l 276 503 q 294 494 279 501 q 314 488 308 488 l 650 488 q 669 505 663 488 q 683 543 675 522 q 706 581 692 564 q 747 599 719 599 q 782 588 769 599 q 802 563 794 578 q 815 530 810 547 q 829 499 821 513 q 853 482 836 486 q 889 471 871 478 q 921 450 907 464 q 935 407 935 436 q 917 365 935 378 q 878 344 899 351 q 839 328 857 336 q 821 299 821 319 l 821 89 q 808 58 821 74 q 778 31 796 43 q 740 12 760 19 q 708 4 721 4 l 261 4 q 228 10 247 4 q 197 25 208 15 l 35 188 q 19 218 25 199 q 14 251 14 238 l 14 835 q 40 900 14 869 q 99 940 67 931 l 146 940 m 297 275 q 303 233 297 254 q 322 194 310 211 q 353 167 335 178 q 397 157 372 157 l 639 157 q 653 161 642 157 q 665 172 665 165 l 665 314 l 650 331 l 318 331 q 302 316 307 331 q 297 288 297 301 l 297 275 l 297 275 z "},"'":{"ha":308,"x_min":14,"x_max":292,"o":"m 129 610 q 68 669 100 639 q 19 740 36 700 q 16 749 18 743 q 14 850 14 756 q 21 871 14 857 q 29 888 28 885 q 58 920 42 908 q 94 938 75 932 q 134 944 113 943 q 179 944 156 944 q 216 937 196 944 q 253 917 236 929 q 281 887 269 904 q 292 850 292 869 l 292 563 q 285 535 292 549 q 269 509 279 521 q 245 490 258 497 q 218 483 232 483 q 178 497 192 483 q 156 531 164 511 q 144 572 149 550 q 129 610 139 593 z "},"(":{"ha":486,"x_min":14,"x_max":471,"o":"m 375 942 q 408 936 392 942 q 439 921 425 931 q 462 897 453 911 q 471 867 471 883 q 462 835 471 849 q 439 812 453 821 q 408 797 425 803 q 375 790 392 792 q 347 790 367 790 q 305 788 328 789 q 262 785 282 786 q 233 785 242 785 q 189 758 213 779 q 165 711 165 736 l 165 628 l 182 596 q 199 579 186 592 q 224 552 211 567 q 249 525 238 538 q 265 507 261 513 q 270 500 267 506 q 276 492 274 494 q 288 470 281 485 q 294 454 294 456 l 294 235 q 301 220 294 232 q 313 203 308 208 q 356 171 329 182 q 409 149 383 160 q 453 124 435 139 q 471 81 471 110 q 454 36 471 51 q 413 13 438 21 q 362 5 389 6 q 315 4 335 4 q 248 5 285 4 q 186 31 211 6 l 40 176 q 23 201 32 185 q 14 229 14 218 l 14 717 q 23 744 14 728 q 40 769 32 761 l 186 915 q 206 929 193 922 q 229 938 219 936 l 375 942 z "},")":{"ha":486,"x_min":14,"x_max":469,"o":"m 14 81 q 35 127 14 113 q 83 152 56 142 q 139 176 111 163 q 182 224 167 190 q 185 233 183 226 q 186 240 186 239 l 186 707 q 180 726 186 711 q 171 743 174 740 q 126 776 153 765 q 75 797 100 786 q 32 822 50 807 q 14 867 14 836 q 22 897 14 883 q 43 920 31 910 q 72 936 56 931 q 103 942 88 942 q 136 934 118 942 q 165 915 154 926 l 313 769 q 338 720 331 751 q 344 661 344 689 l 344 628 l 360 596 q 418 538 388 568 q 464 471 449 508 q 468 462 467 468 q 469 454 469 456 l 469 229 q 460 201 469 218 q 443 176 451 185 l 297 31 q 268 13 285 18 q 234 5 251 7 q 199 3 217 3 q 168 4 182 4 q 122 5 149 4 q 71 13 94 6 q 31 36 47 21 q 14 81 14 51 z "},"*":{"ha":665,"x_min":14,"x_max":650,"o":"m 61 246 q 65 274 61 258 q 76 299 68 289 l 167 393 q 121 397 147 394 q 71 408 94 400 q 31 432 47 417 q 14 475 14 447 q 19 498 14 485 q 34 522 25 511 q 54 541 43 533 q 76 549 65 549 l 156 549 l 167 556 l 76 650 q 65 675 68 660 q 61 703 61 690 q 103 746 61 746 q 131 742 115 746 q 156 729 146 739 l 318 572 l 344 572 l 507 729 q 532 742 517 739 q 560 746 547 746 q 603 703 603 746 q 599 675 603 690 q 586 650 596 660 l 497 556 l 507 549 l 586 549 q 608 541 597 549 q 629 522 619 533 q 644 498 639 511 q 650 475 650 485 q 633 432 650 447 q 593 408 617 417 q 543 397 569 400 q 497 393 517 394 l 586 299 q 599 274 596 289 q 603 246 603 258 q 560 204 603 204 q 532 208 547 204 q 507 219 517 211 l 344 378 l 318 378 l 156 219 q 131 208 146 211 q 103 204 115 204 q 61 246 61 204 z "},"+":{"ha":929,"x_min":14,"x_max":914,"o":"m 303 397 l 108 397 q 75 403 92 397 q 45 420 58 410 q 23 445 32 431 q 14 476 14 460 q 19 499 14 486 q 34 524 25 513 q 54 542 43 535 q 76 550 65 550 l 288 550 q 306 560 292 550 q 321 574 321 569 l 321 783 q 328 810 321 796 q 347 836 336 825 q 372 855 358 847 q 397 863 385 863 q 426 855 418 863 q 450 831 435 847 q 468 790 465 813 q 471 744 471 768 q 473 701 471 722 q 492 663 475 679 l 582 574 q 611 557 592 564 q 639 550 631 550 l 850 550 q 872 542 861 550 q 893 524 883 535 q 908 499 903 513 q 914 476 914 486 q 905 445 914 460 q 882 420 896 431 q 851 403 868 410 q 818 397 835 397 l 624 397 l 606 379 l 606 168 q 600 155 606 167 q 592 136 594 143 q 538 85 572 96 q 464 74 504 74 q 394 83 421 74 q 340 126 368 92 q 335 133 339 128 q 329 146 332 139 q 324 159 326 153 q 321 168 321 165 l 321 379 l 303 397 z "},",":{"ha":356,"x_min":14,"x_max":339,"o":"m 14 82 q 33 128 14 104 q 76 153 51 153 l 256 153 q 283 143 268 153 q 310 120 297 133 q 331 91 322 107 q 339 63 339 75 l 339 -157 q 332 -184 339 -171 q 315 -208 325 -197 q 291 -224 304 -218 q 265 -231 278 -231 q 214 -208 228 -231 q 196 -153 200 -185 q 189 -88 192 -121 q 171 -36 186 -56 q 126 -6 153 -15 q 75 13 100 3 q 32 37 50 22 q 14 82 14 51 z "},"-":{"ha":929,"x_min":14,"x_max":914,"o":"m 14 475 q 33 522 14 499 q 76 546 51 546 l 850 546 q 894 522 875 546 q 914 475 914 499 q 905 443 914 457 q 882 419 896 429 q 851 404 868 410 q 818 399 835 399 l 108 399 q 75 404 92 399 q 45 419 58 410 q 23 443 32 429 q 14 475 14 457 z "},".":{"ha":276,"x_min":14,"x_max":261,"o":"m 14 81 q 20 104 14 92 q 36 127 26 117 q 58 144 46 138 q 82 151 69 151 l 192 151 q 217 144 204 151 q 239 127 229 138 q 255 104 249 117 q 261 79 261 92 q 248 41 261 56 q 216 18 235 26 q 176 7 197 10 q 138 4 154 4 q 98 8 119 4 q 58 19 76 11 q 26 42 39 28 q 14 81 14 57 z "},"/":{"ha":929,"x_min":13,"x_max":914,"o":"m 13 75 l 13 92 q 19 110 13 103 l 829 918 q 842 925 836 925 l 857 925 q 899 910 883 925 q 914 868 914 894 l 914 853 q 907 840 914 847 l 99 31 q 84 24 92 24 q 69 25 76 25 q 29 38 46 25 q 13 75 13 50 z "},":":{"ha":276,"x_min":14,"x_max":261,"o":"m 14 81 q 20 104 14 92 q 35 127 26 117 q 57 144 44 138 q 82 151 69 151 l 192 151 q 217 144 204 151 q 239 127 229 138 q 255 104 249 117 q 261 81 261 92 q 248 42 261 57 q 216 19 235 28 q 176 8 197 11 q 138 4 154 4 q 98 8 119 4 q 58 19 76 11 q 26 42 39 28 q 14 81 14 57 m 14 865 q 31 908 14 893 q 71 931 47 924 q 120 940 94 939 q 164 942 146 942 q 195 936 178 942 q 227 921 213 931 q 251 897 242 911 q 261 865 261 882 q 248 827 261 842 q 216 804 235 813 q 176 792 197 796 q 138 789 154 789 q 98 792 119 789 q 58 804 76 796 q 26 827 39 813 q 14 865 14 842 z "},";":{"ha":356,"x_min":13,"x_max":339,"o":"m 13 76 q 17 102 13 89 q 29 126 21 115 q 49 145 38 138 q 76 153 61 153 l 256 153 q 283 143 268 153 q 310 120 297 133 q 331 91 322 107 q 339 63 339 75 l 339 -157 q 332 -184 339 -171 q 315 -208 325 -197 q 291 -224 304 -218 q 265 -231 278 -231 q 214 -208 228 -231 q 196 -153 200 -185 q 189 -88 192 -121 q 171 -36 186 -56 q 148 -11 160 -22 q 119 0 136 0 q 85 9 104 4 q 51 22 67 14 q 24 42 35 29 q 13 76 13 56 m 76 868 q 93 911 76 896 q 133 934 110 926 q 183 943 157 942 q 226 944 208 944 q 259 939 242 944 q 291 924 276 933 q 315 899 306 914 q 324 868 324 885 q 311 830 324 844 q 280 807 299 815 q 240 795 261 799 q 200 792 218 792 q 162 795 183 792 q 122 807 140 799 q 90 830 103 815 q 76 868 76 844 z "},"<":{"ha":535,"x_min":13,"x_max":519,"o":"m 13 485 q 19 503 13 496 l 435 918 q 448 924 440 925 q 463 924 456 924 q 504 908 489 924 q 519 868 519 893 l 519 853 q 513 839 519 846 l 167 488 l 167 461 l 513 110 q 519 94 519 103 l 519 81 q 504 40 519 56 q 463 25 489 25 q 448 24 456 25 q 435 31 440 24 l 14 450 q 13 458 14 451 q 13 468 13 464 l 13 485 z "},"=":{"ha":929,"x_min":14,"x_max":914,"o":"m 14 344 q 33 392 14 368 q 76 415 51 415 l 850 415 q 894 392 875 415 q 914 344 914 368 q 905 313 914 326 q 882 289 896 299 q 851 274 868 279 q 818 268 835 268 l 108 268 q 75 274 92 268 q 45 289 58 279 q 23 313 32 299 q 14 344 14 326 m 14 607 q 33 654 14 631 q 76 678 51 678 l 850 678 q 894 654 875 678 q 914 607 914 631 q 905 576 914 590 q 882 551 896 561 q 851 536 868 542 q 818 531 835 531 l 108 531 q 75 536 92 531 q 45 551 58 542 q 23 576 32 561 q 14 607 14 590 z "},">":{"ha":535,"x_min":13,"x_max":519,"o":"m 13 92 q 19 110 13 103 l 365 461 l 365 488 l 19 839 q 13 853 13 846 q 14 868 14 861 q 29 908 14 893 q 69 924 44 924 q 84 924 76 924 q 99 918 92 925 l 513 503 q 519 489 519 496 l 519 474 l 519 458 q 513 446 519 453 l 99 31 q 84 24 92 24 q 69 25 76 25 q 29 38 46 25 q 13 75 13 50 l 13 92 z "},"?":{"ha":950,"x_min":14,"x_max":933,"o":"m 276 81 q 295 128 276 104 q 340 151 314 151 l 456 151 q 478 145 467 151 q 499 129 489 139 q 514 108 508 119 q 519 86 519 96 q 508 46 519 61 q 478 21 496 31 q 440 8 461 11 q 397 4 418 4 q 357 8 378 4 q 318 19 336 11 q 288 42 300 28 q 276 81 276 57 m 256 410 q 267 476 256 446 q 308 529 278 506 q 326 541 314 533 q 340 549 338 549 l 686 549 q 703 553 689 549 q 724 561 717 558 q 758 587 746 571 q 774 622 769 603 q 780 661 779 640 q 781 703 781 682 q 772 729 778 714 q 756 758 765 744 q 734 781 746 771 q 708 790 722 790 l 108 790 q 75 796 92 790 q 45 812 58 801 q 23 837 32 822 q 14 868 14 851 q 33 915 14 892 q 76 940 51 939 l 686 944 q 720 939 700 944 q 750 924 740 933 l 913 761 l 928 729 q 931 697 929 710 q 933 669 932 683 q 933 646 933 656 l 933 639 q 927 609 933 628 q 913 582 921 590 l 750 419 q 711 400 733 403 q 665 397 689 397 q 621 395 643 397 q 582 378 599 393 l 488 288 q 444 269 469 272 q 397 267 419 267 q 293 304 331 267 q 256 410 256 342 z "},"@":{"ha":965,"x_min":14,"x_max":949,"o":"m 197 924 l 229 939 l 707 944 q 741 939 721 944 q 771 924 761 933 l 933 761 l 949 729 l 949 351 q 925 306 949 325 q 878 288 901 288 q 844 301 857 288 q 813 314 831 314 q 791 306 801 314 q 768 290 781 299 q 740 274 756 282 q 707 267 725 267 l 524 267 q 481 276 501 267 q 444 302 460 286 q 418 339 428 318 q 408 382 408 360 l 408 571 q 416 602 408 583 q 436 638 424 621 q 463 667 449 656 q 492 679 478 679 l 707 679 q 730 684 717 679 q 754 697 743 689 q 774 716 765 706 q 782 738 782 726 q 763 770 782 753 q 728 788 744 788 l 240 788 q 205 774 219 788 q 182 742 190 761 q 169 703 174 724 q 165 668 165 682 q 169 628 165 649 q 188 593 174 608 q 204 574 192 588 q 231 545 217 560 q 258 517 246 531 q 276 499 271 504 l 294 467 l 294 251 q 304 217 294 235 q 329 186 314 200 q 363 163 344 172 q 397 154 381 154 l 869 154 q 892 147 881 154 q 913 128 904 139 q 928 103 922 117 q 933 81 933 90 q 924 49 933 63 q 902 25 915 35 q 872 10 889 15 q 839 4 856 4 l 261 4 q 227 10 247 4 q 197 25 207 15 l 35 188 q 19 217 25 197 q 14 251 14 238 l 14 703 q 21 734 14 714 q 35 761 28 754 l 197 924 m 560 474 q 565 433 560 454 q 582 395 571 413 q 610 367 593 378 q 650 356 626 356 q 672 358 663 356 q 692 372 681 361 l 781 461 q 794 483 792 472 q 797 507 797 493 q 790 536 797 521 q 772 564 783 551 q 747 585 761 576 q 718 593 732 593 l 639 593 q 624 587 636 593 q 607 576 613 581 q 569 531 579 556 q 560 474 560 507 z "},"A":{"ha":965,"x_min":14,"x_max":949,"o":"m 29 367 q 47 385 35 372 q 74 414 60 399 q 101 442 89 429 q 119 461 114 456 q 135 488 126 469 q 143 514 143 506 l 143 729 l 161 761 l 324 924 l 356 939 l 571 944 q 604 939 583 944 q 633 924 625 933 l 797 761 q 804 749 800 757 q 812 731 808 740 q 818 712 815 721 q 821 697 821 703 l 821 493 l 839 461 l 928 367 q 943 337 938 356 q 949 304 949 318 l 949 114 q 927 53 949 82 q 872 25 906 25 q 849 31 861 25 q 825 45 836 36 q 806 66 814 54 q 799 89 799 78 l 799 304 q 792 331 799 315 q 774 360 785 346 q 750 383 764 374 q 724 393 736 393 l 365 393 q 345 385 357 393 q 322 367 333 378 q 302 345 310 357 q 294 325 294 333 l 294 114 q 292 101 294 110 q 285 84 289 93 q 276 67 281 75 q 271 57 272 60 q 217 15 247 25 q 150 4 188 4 q 83 15 113 4 q 29 57 53 25 q 20 74 26 61 q 14 89 14 86 l 14 335 l 29 367 m 665 671 q 661 706 665 686 q 649 744 657 726 q 626 775 640 763 q 592 788 613 788 l 365 788 q 345 780 357 788 q 323 762 333 772 q 305 740 313 751 q 297 718 297 728 l 297 624 q 307 595 297 608 q 331 572 317 582 q 363 556 346 563 q 392 550 379 550 l 571 550 q 613 561 594 550 q 642 590 631 572 q 660 630 654 608 q 665 671 665 651 z "},"B":{"ha":965,"x_min":14,"x_max":949,"o":"m 571 944 q 603 939 583 944 q 633 924 624 933 l 797 761 q 817 722 814 744 q 819 677 819 700 q 820 632 818 654 q 839 593 822 610 l 928 499 q 943 468 938 488 q 949 435 949 449 l 949 246 q 942 215 949 235 q 928 188 935 194 l 765 25 q 735 10 756 15 q 701 4 715 4 l 124 4 q 90 10 108 4 q 54 28 71 17 q 26 56 38 40 q 14 89 14 71 l 14 860 q 22 885 14 871 q 43 910 31 899 q 69 931 56 922 q 93 939 82 939 l 571 944 l 571 944 m 797 278 q 793 312 797 292 q 780 350 789 332 q 757 381 771 368 q 724 393 743 393 l 365 393 q 345 385 357 393 q 323 367 333 378 q 305 345 313 357 q 297 325 297 333 l 297 231 q 307 202 297 215 q 331 178 317 189 q 363 163 346 168 q 392 157 379 157 l 701 157 q 744 168 726 157 q 774 197 763 179 q 792 236 786 215 q 797 278 797 257 m 665 671 q 661 706 665 686 q 649 744 657 726 q 626 775 640 763 q 592 788 613 788 l 235 788 q 213 780 225 788 q 191 762 201 772 q 174 740 181 751 q 167 718 167 728 l 167 624 q 176 595 167 608 q 201 572 186 582 q 232 556 215 563 q 261 550 249 550 l 571 550 q 613 561 594 550 q 642 590 631 572 q 660 630 654 608 q 665 671 665 651 z "},"C":{"ha":944,"x_min":14,"x_max":929,"o":"m 29 188 l 14 219 l 14 729 l 29 761 l 193 924 l 224 939 l 703 944 q 735 939 715 944 q 765 924 756 933 l 922 767 q 929 751 929 760 l 929 738 q 914 697 929 713 q 872 682 899 682 q 858 681 865 682 q 844 688 850 681 q 826 703 839 692 q 799 729 814 715 q 772 755 785 743 q 754 771 760 767 q 740 781 750 775 q 724 788 731 788 l 235 788 q 213 780 225 788 q 191 762 201 772 q 174 740 181 751 q 167 718 167 728 l 167 624 l 182 593 l 271 499 q 287 468 279 490 q 294 435 294 446 l 294 231 q 305 203 294 217 q 331 180 315 190 q 363 163 346 169 q 392 157 379 157 l 703 157 q 730 163 714 157 q 754 178 746 169 q 772 194 760 182 q 799 219 785 206 q 826 245 814 233 q 844 261 839 257 q 858 267 850 268 q 872 267 865 267 q 914 252 899 267 q 929 211 929 238 l 929 196 q 922 183 929 190 l 765 25 q 735 10 756 15 q 703 4 715 4 l 256 4 q 223 10 243 4 q 193 25 203 15 l 29 188 z "},"D":{"ha":965,"x_min":14,"x_max":949,"o":"m 701 944 q 735 939 715 944 q 765 924 756 933 l 928 761 q 943 731 938 751 q 949 697 949 711 l 949 246 q 942 215 949 235 q 928 188 935 194 l 765 25 q 735 10 756 15 q 701 4 715 4 l 124 4 q 90 10 108 4 q 54 28 71 17 q 26 56 38 40 q 14 89 14 71 l 14 860 q 22 885 14 871 q 43 910 31 899 q 69 931 56 922 q 93 939 82 939 l 701 944 m 182 593 l 271 499 q 287 468 279 490 q 294 435 294 446 l 294 231 q 305 203 294 217 q 331 180 315 190 q 363 163 346 169 q 392 157 379 157 l 701 157 q 735 165 718 157 q 767 187 753 174 q 789 217 781 200 q 797 251 797 235 l 797 697 q 791 726 797 710 q 774 755 785 742 q 751 778 764 768 q 724 788 738 788 l 235 788 q 213 780 225 788 q 191 762 201 772 q 174 740 181 751 q 167 718 167 728 l 167 624 l 182 593 z "},"E":{"ha":944,"x_min":14,"x_max":929,"o":"m 29 188 l 14 219 l 14 729 l 29 761 l 193 924 l 224 939 l 833 944 q 867 939 850 944 q 897 924 883 933 q 920 900 911 914 q 929 868 929 886 q 920 837 929 851 q 897 812 911 822 q 867 796 883 801 q 833 790 850 790 l 235 790 q 215 783 226 790 q 192 763 203 775 q 174 739 182 751 q 167 718 167 726 l 167 624 q 176 595 167 608 q 201 572 186 582 q 232 555 215 561 q 261 549 249 549 l 865 549 q 888 541 876 549 q 908 522 899 533 q 924 498 918 511 q 929 475 929 485 q 920 444 929 458 q 897 419 911 429 q 867 402 883 408 q 833 396 850 396 l 365 396 q 345 388 357 396 q 323 369 333 381 q 305 345 313 357 q 297 325 297 333 l 297 231 q 308 202 297 215 q 333 178 318 189 q 363 160 347 167 q 392 154 379 154 l 865 154 q 888 147 876 154 q 908 128 899 139 q 924 103 918 117 q 929 81 929 90 q 920 49 929 63 q 897 25 911 35 q 867 10 883 15 q 833 4 850 4 l 256 4 q 223 10 243 4 q 193 25 203 15 l 29 188 z "},"F":{"ha":944,"x_min":14,"x_max":929,"o":"m 29 761 l 193 924 l 224 939 l 833 944 q 867 939 850 944 q 897 924 883 933 q 920 900 911 914 q 929 868 929 886 q 920 837 929 851 q 897 812 911 822 q 867 796 883 801 q 833 790 850 790 l 235 790 q 215 783 226 790 q 192 763 203 775 q 174 739 182 751 q 167 718 167 726 l 167 624 q 176 595 167 608 q 201 572 186 582 q 232 555 215 561 q 261 549 249 549 l 865 549 q 888 541 876 549 q 908 522 899 533 q 924 498 918 511 q 929 475 929 485 q 920 444 929 458 q 897 419 911 429 q 867 402 883 408 q 833 396 850 396 l 365 396 q 347 388 358 396 q 323 367 335 379 q 303 344 311 356 q 294 325 294 332 l 294 114 q 292 101 294 110 q 285 84 289 93 q 276 67 281 75 q 271 57 272 60 q 217 15 247 25 q 150 4 188 4 q 83 15 113 4 q 29 57 53 25 q 20 74 26 61 q 14 89 14 86 l 14 729 l 29 761 z "},"G":{"ha":965,"x_min":14,"x_max":949,"o":"m 29 188 l 14 219 l 14 729 l 29 761 l 193 924 l 224 939 l 833 944 q 867 939 850 944 q 897 924 883 933 q 919 899 910 914 q 928 868 928 885 q 919 837 928 851 q 897 812 910 822 q 867 795 883 801 q 833 789 850 789 l 235 789 q 215 781 226 789 q 192 763 203 774 q 174 739 182 751 q 167 718 167 726 l 167 624 l 182 593 l 271 499 q 287 468 279 490 q 294 435 294 446 l 294 231 q 305 203 294 217 q 331 180 315 190 q 363 163 346 169 q 392 157 379 157 l 701 157 q 744 168 726 157 q 774 197 763 179 q 792 236 786 215 q 797 278 797 257 q 785 343 797 321 q 753 376 774 365 q 708 390 733 388 q 657 398 683 393 q 605 413 631 403 q 560 446 579 422 q 554 458 554 451 l 554 474 q 573 522 554 497 q 618 546 592 546 l 865 546 q 897 534 882 546 q 924 505 913 522 q 942 468 936 488 q 949 435 949 449 l 949 251 q 943 217 949 238 q 928 188 938 197 l 765 25 q 735 10 756 15 q 701 4 715 4 l 256 4 q 223 10 243 4 q 193 25 203 15 l 29 188 z "},"H":{"ha":965,"x_min":14,"x_max":949,"o":"m 85 924 q 116 915 101 924 q 141 892 131 906 q 158 861 151 878 q 164 829 164 844 l 164 624 q 174 598 164 611 q 200 574 185 585 q 232 557 215 564 q 261 550 249 550 l 701 550 q 737 559 719 550 q 768 583 754 568 q 790 615 782 597 q 799 650 799 633 l 799 860 q 806 883 799 871 q 825 903 814 894 q 849 918 836 913 q 872 924 861 924 q 904 915 890 924 q 928 892 918 906 q 943 863 938 879 q 949 829 949 846 l 949 114 q 927 53 949 82 q 872 25 906 25 q 849 31 861 25 q 825 45 836 36 q 806 66 814 54 q 799 89 799 78 l 799 304 q 792 331 799 315 q 774 360 785 346 q 750 383 764 374 q 724 393 736 393 l 365 393 q 345 385 357 393 q 322 367 333 378 q 302 345 310 357 q 294 325 294 333 l 294 114 q 292 101 294 110 q 285 84 289 93 q 276 67 281 75 q 271 57 272 60 q 217 15 247 25 q 150 4 188 4 q 83 15 113 4 q 29 57 53 25 q 20 74 26 61 q 14 89 14 86 l 14 860 q 38 905 14 886 q 85 924 61 924 z "},"I":{"ha":308,"x_min":14,"x_max":292,"o":"m 88 922 q 113 915 100 922 q 138 898 126 908 q 157 874 150 888 q 164 849 164 861 l 164 633 q 171 614 164 628 q 182 597 178 600 q 240 539 210 568 q 286 471 271 510 q 290 463 289 468 q 292 456 292 457 l 292 99 q 277 56 292 74 q 242 26 263 38 q 197 9 221 14 q 153 4 172 4 q 109 9 133 4 q 64 26 85 14 q 28 56 43 38 q 14 99 14 74 l 14 849 q 21 876 14 863 q 38 899 28 889 q 62 916 49 910 q 88 922 75 922 z "},"J":{"ha":965,"x_min":14,"x_max":949,"o":"m 14 219 l 14 335 q 38 380 14 361 q 85 399 61 399 q 131 381 117 399 q 153 336 146 363 q 163 278 160 310 q 174 219 165 246 q 203 175 183 193 q 261 157 222 157 l 571 157 q 606 166 589 157 q 638 190 624 175 q 660 222 651 204 q 668 257 668 239 l 668 860 q 676 883 668 871 q 694 903 683 894 q 718 918 706 913 q 742 924 731 924 q 773 915 758 924 q 798 892 788 906 q 815 861 808 878 q 821 829 821 844 l 821 624 l 839 593 l 928 499 q 943 468 938 488 q 949 435 949 449 l 949 246 q 942 215 949 235 q 928 188 935 194 l 765 25 q 735 10 756 15 q 701 4 715 4 l 256 4 q 223 10 243 4 q 193 25 203 15 l 29 188 l 14 219 z "},"K":{"ha":965,"x_min":14,"x_max":949,"o":"m 85 924 q 116 915 101 924 q 141 892 131 906 q 158 861 151 878 q 164 829 164 844 l 164 624 q 171 610 164 622 q 182 593 178 599 q 228 558 201 567 q 285 550 254 550 q 325 553 304 550 q 361 571 346 557 l 713 918 q 727 924 719 925 q 742 924 735 924 q 782 908 767 924 q 797 868 797 893 l 797 853 q 792 839 797 844 l 513 556 l 524 547 l 733 547 l 765 529 l 928 367 q 943 337 938 357 q 949 304 949 317 l 949 114 q 927 53 949 82 q 872 25 906 25 q 849 31 861 25 q 825 45 836 36 q 806 66 814 54 q 799 89 799 78 l 799 304 q 792 331 799 315 q 774 360 785 346 q 750 383 764 374 q 724 393 736 393 l 365 393 q 345 385 357 393 q 322 367 333 378 q 302 345 310 357 q 294 325 294 333 l 294 114 q 292 101 294 110 q 285 84 289 93 q 276 67 281 75 q 271 57 272 60 q 217 15 247 25 q 150 4 188 4 q 83 15 113 4 q 29 57 53 25 q 20 74 26 61 q 14 89 14 86 l 14 860 q 38 905 14 886 q 85 924 61 924 z "},"L":{"ha":944,"x_min":14,"x_max":929,"o":"m 14 219 l 14 861 q 38 905 14 886 q 85 924 61 924 q 116 915 101 924 q 141 892 131 906 q 158 863 151 879 q 164 829 164 846 l 164 624 l 182 593 l 271 499 q 287 468 279 490 q 294 435 294 446 l 294 231 q 306 204 294 218 q 333 179 317 190 q 365 161 349 168 q 392 154 381 154 l 865 154 q 888 147 876 154 q 908 128 899 139 q 924 103 918 117 q 929 81 929 90 q 920 49 929 63 q 897 25 911 35 q 867 10 883 15 q 833 4 850 4 l 256 4 q 223 10 243 4 q 193 25 203 15 l 29 188 l 14 219 z "},"M":{"ha":965,"x_min":14,"x_max":949,"o":"m 14 729 l 29 761 l 193 924 l 224 939 l 701 944 q 735 939 715 944 q 765 924 756 933 l 928 761 q 943 731 938 751 q 949 697 949 711 l 949 119 q 943 86 949 103 q 928 56 938 69 q 904 34 918 43 q 872 25 890 25 q 849 31 861 25 q 825 45 836 36 q 806 66 814 54 q 799 89 799 78 l 799 697 q 792 724 799 708 q 774 754 785 740 q 750 778 764 768 q 724 788 736 788 l 629 788 q 608 780 621 788 q 584 762 596 772 q 565 739 572 751 q 557 718 557 726 l 557 119 q 551 88 557 104 q 534 57 544 71 q 510 34 524 43 q 479 25 496 25 q 456 31 468 25 q 432 45 443 36 q 413 66 421 54 q 406 89 406 78 l 406 697 q 399 724 406 708 q 381 754 392 740 q 356 778 369 768 q 329 788 342 788 l 235 788 q 213 780 225 788 q 191 762 201 772 q 174 740 181 751 q 167 718 167 728 l 167 624 l 182 593 l 271 499 q 286 468 281 488 q 292 435 292 449 l 292 119 q 279 68 292 90 q 247 32 267 46 q 201 11 226 18 q 150 4 176 4 q 83 15 113 4 q 29 57 53 25 q 20 74 26 61 q 14 89 14 86 l 14 729 z "},"N":{"ha":965,"x_min":14,"x_max":949,"o":"m 14 729 l 29 761 l 193 924 l 224 939 l 701 944 q 735 939 715 944 q 765 924 756 933 l 928 761 q 943 731 938 751 q 949 697 949 711 l 949 119 q 943 86 949 103 q 928 56 938 69 q 904 34 918 43 q 872 25 890 25 q 849 31 861 25 q 825 45 836 36 q 806 66 814 54 q 799 89 799 78 l 799 697 q 792 724 799 708 q 774 754 785 740 q 750 778 764 768 q 724 788 736 788 l 235 788 q 213 780 225 788 q 191 762 201 772 q 174 740 181 751 q 167 718 167 728 l 167 624 l 182 593 l 271 499 q 286 468 281 488 q 292 435 292 449 l 292 119 q 279 68 292 90 q 247 32 267 46 q 201 11 226 18 q 150 4 176 4 q 83 15 113 4 q 29 57 53 25 q 20 74 26 61 q 14 89 14 86 l 14 729 z "},"O":{"ha":965,"x_min":14,"x_max":949,"o":"m 29 188 l 14 219 l 14 729 l 29 761 l 193 924 l 224 939 l 701 944 q 735 939 715 944 q 765 924 756 933 l 928 761 q 943 731 938 751 q 949 697 949 711 l 949 251 q 943 217 949 238 q 928 188 938 197 l 765 25 q 735 10 756 15 q 701 4 715 4 l 256 4 q 223 10 243 4 q 193 25 203 15 l 29 188 m 671 614 q 670 630 671 618 q 668 656 669 642 q 666 681 667 669 q 665 697 665 693 q 658 726 664 710 q 642 755 651 742 q 619 778 632 768 q 592 788 606 788 l 235 788 q 213 780 225 788 q 191 762 201 772 q 174 740 181 751 q 167 718 167 728 l 167 231 q 176 202 167 215 q 201 178 186 189 q 232 163 215 168 q 261 157 249 157 l 701 157 q 737 166 719 157 q 768 189 754 175 q 790 221 782 203 q 797 257 797 239 l 797 435 q 790 463 797 447 q 775 488 783 478 q 758 506 771 493 q 731 535 746 519 q 704 563 717 550 q 686 582 692 576 l 671 614 z "},"P":{"ha":965,"x_min":14,"x_max":949,"o":"m 701 944 q 735 939 715 944 q 765 924 756 933 l 928 761 q 947 719 944 744 q 949 671 949 693 q 947 624 949 650 q 928 582 944 599 l 765 419 q 735 403 757 411 q 701 396 713 396 l 365 396 q 347 388 358 396 q 323 367 335 379 q 303 344 311 356 q 294 325 294 332 l 294 119 q 281 69 294 90 q 247 33 268 47 q 201 11 226 18 q 150 4 175 4 q 83 15 113 4 q 29 57 53 25 q 20 74 26 61 q 14 89 14 86 l 14 860 q 22 885 14 871 q 43 910 31 899 q 69 931 56 922 q 93 939 82 939 l 701 944 m 797 674 q 793 708 797 689 q 780 746 789 728 q 757 776 771 764 q 724 788 743 788 l 235 788 q 213 780 225 788 q 191 762 201 772 q 174 740 181 751 q 167 718 167 728 l 167 624 q 176 595 167 608 q 201 572 186 582 q 232 556 215 561 q 261 550 249 550 l 701 550 q 744 562 726 550 q 774 592 763 574 q 792 631 786 610 q 797 674 797 653 z "},"Q":{"ha":965,"x_min":14,"x_max":949,"o":"m 29 188 l 14 219 l 14 729 l 29 761 l 193 924 l 224 939 l 701 944 q 735 939 715 944 q 765 924 756 933 l 928 761 q 943 731 938 751 q 949 697 949 711 l 949 314 q 941 283 949 297 q 925 255 933 268 q 909 231 917 242 q 901 211 901 219 q 909 191 901 201 q 925 168 917 181 q 941 142 933 156 q 949 111 949 128 q 931 54 949 75 q 888 22 914 33 q 830 8 861 11 q 772 4 799 4 l 719 4 q 671 15 701 4 q 641 38 656 22 q 610 53 626 53 q 591 45 601 53 q 567 28 581 38 q 540 12 554 19 q 508 4 525 4 l 256 4 q 223 10 243 4 q 193 25 203 15 l 29 188 m 618 282 q 676 286 644 283 q 734 299 707 289 q 779 331 761 310 q 797 388 797 351 l 797 697 q 791 726 797 710 q 774 755 785 742 q 751 778 764 768 q 724 788 738 788 l 235 788 q 213 780 225 788 q 191 762 201 772 q 174 740 181 751 q 167 718 167 728 l 167 231 q 176 202 167 215 q 201 178 186 189 q 232 163 215 168 q 261 157 249 157 l 439 157 q 467 163 451 157 q 492 178 483 169 q 511 194 497 182 q 540 222 525 207 q 567 249 554 236 q 586 267 581 261 l 618 282 z "},"R":{"ha":965,"x_min":14,"x_max":949,"o":"m 571 944 q 603 939 583 944 q 633 924 624 933 l 797 761 q 804 749 800 757 q 812 731 808 740 q 818 712 815 721 q 821 697 821 703 l 821 493 l 839 461 l 928 367 q 943 337 938 356 q 949 304 949 318 l 949 114 q 927 53 949 82 q 872 25 906 25 q 849 31 861 25 q 825 45 836 36 q 806 66 814 54 q 799 89 799 78 l 799 304 q 792 331 799 315 q 774 360 785 346 q 750 383 764 374 q 724 393 736 393 l 365 393 q 345 385 357 393 q 322 367 333 378 q 302 345 310 357 q 294 325 294 333 l 294 119 q 281 69 294 90 q 247 33 268 47 q 201 11 226 18 q 150 4 175 4 q 83 15 113 4 q 29 57 53 25 q 20 74 26 61 q 14 89 14 86 l 14 860 q 22 885 14 871 q 43 910 31 899 q 69 931 56 922 q 93 939 82 939 l 571 944 l 571 944 m 665 674 q 661 708 665 689 q 648 746 657 728 q 625 776 639 764 q 592 788 611 788 l 235 788 q 213 780 225 788 q 191 762 201 772 q 174 740 181 751 q 167 718 167 728 l 167 624 q 176 595 167 608 q 201 572 186 582 q 232 556 215 561 q 261 550 249 550 l 571 550 q 613 562 596 550 q 642 592 631 574 q 660 631 654 610 q 665 674 665 653 z "},"S":{"ha":965,"x_min":14,"x_max":949,"o":"m 29 211 q 44 252 29 238 q 85 267 60 267 q 100 267 92 267 q 114 261 108 268 q 131 244 118 257 q 158 219 143 232 q 185 194 172 206 q 203 178 197 182 q 231 163 214 168 q 261 157 247 157 l 571 157 q 613 169 596 157 q 642 198 631 181 q 660 238 654 215 q 665 281 665 260 q 660 314 665 294 q 646 351 656 333 q 623 383 636 369 q 592 396 610 396 l 124 396 q 91 403 110 396 q 55 423 72 411 q 26 450 38 435 q 14 482 14 465 l 14 729 l 29 761 l 193 924 l 224 939 q 260 940 226 939 q 351 941 293 940 q 472 942 408 942 q 597 944 535 943 q 701 944 660 944 l 706 944 q 738 938 718 944 q 765 924 757 932 l 922 765 q 928 752 929 760 q 928 738 928 744 q 872 682 928 682 q 858 681 865 682 q 844 688 850 681 q 826 703 839 692 q 799 729 814 715 q 772 755 785 743 q 754 771 760 767 q 740 781 750 775 q 724 788 731 788 l 235 788 q 213 780 225 788 q 191 762 201 772 q 174 740 181 751 q 167 718 167 728 l 167 624 q 177 596 167 610 q 202 572 188 582 q 233 554 217 561 q 261 547 249 547 l 733 547 l 765 529 l 928 367 q 947 324 944 350 q 949 278 949 299 q 947 230 949 256 q 928 188 944 204 l 765 25 q 735 10 756 15 q 701 4 715 4 l 256 4 q 223 10 243 4 q 193 25 203 15 l 35 183 q 29 196 29 189 l 29 211 z "},"T":{"ha":929,"x_min":14,"x_max":914,"o":"m 14 869 q 33 917 14 893 q 76 940 51 940 l 818 944 q 851 940 835 944 q 882 925 868 935 q 905 901 896 915 q 914 869 914 888 q 905 838 914 853 q 882 813 896 824 q 851 797 868 803 q 818 790 835 790 l 613 790 q 592 783 604 790 q 570 763 581 775 q 552 740 560 751 q 544 719 544 728 l 544 625 l 561 593 l 650 499 q 665 468 660 488 q 671 435 671 449 l 671 119 q 658 68 671 90 q 626 32 646 46 q 580 11 606 18 q 529 4 554 4 q 462 15 490 4 q 408 57 433 25 q 397 74 404 63 q 390 89 390 86 l 390 699 q 383 724 390 708 q 365 755 376 740 q 340 780 353 769 q 314 790 326 790 l 108 790 q 75 797 92 790 q 45 813 58 803 q 23 838 32 824 q 14 869 14 853 z "},"U":{"ha":965,"x_min":14,"x_max":949,"o":"m 29 188 l 14 219 l 14 860 q 38 905 14 886 q 85 924 61 924 q 116 915 101 924 q 141 892 131 906 q 158 861 151 878 q 164 829 164 844 l 164 624 l 182 593 l 271 499 q 287 468 279 490 q 294 435 294 446 l 294 231 q 305 203 294 217 q 331 180 315 190 q 363 163 346 169 q 392 157 379 157 l 701 157 q 737 166 719 157 q 768 190 754 175 q 790 222 782 204 q 799 257 799 239 l 799 860 q 806 883 799 871 q 825 903 814 894 q 849 918 836 913 q 872 924 861 924 q 904 915 890 924 q 928 892 918 906 q 943 863 938 879 q 949 829 949 846 l 949 251 q 943 217 949 238 q 928 188 938 197 l 765 25 q 735 10 756 15 q 701 4 715 4 l 256 4 q 223 10 243 4 q 193 25 203 15 l 29 188 z "},"V":{"ha":965,"x_min":14,"x_max":949,"o":"m 161 188 l 146 219 l 146 250 q 140 306 146 276 q 119 356 135 336 q 100 374 113 361 q 74 403 88 388 q 47 431 60 418 q 29 450 35 444 l 14 482 l 14 860 q 22 885 14 872 q 42 910 31 899 q 68 928 54 921 q 93 939 82 936 q 109 940 97 939 q 135 942 121 940 q 160 944 149 943 q 176 944 172 944 q 219 935 199 944 q 257 909 240 925 q 284 872 274 893 q 294 829 294 851 l 294 231 q 305 203 294 217 q 331 180 315 190 q 363 163 346 169 q 392 157 379 157 l 571 157 q 625 176 606 157 q 654 222 644 194 q 667 281 664 250 q 671 335 669 311 l 686 367 q 704 385 692 372 q 731 414 717 399 q 758 442 746 429 q 775 461 771 456 q 792 490 785 472 q 799 519 799 508 l 799 860 q 806 883 799 871 q 825 903 814 894 q 849 918 836 913 q 872 924 861 924 q 904 915 890 924 q 928 892 918 906 q 943 863 938 879 q 949 829 949 846 l 949 514 q 943 481 949 500 q 928 450 938 461 l 839 356 q 820 317 822 339 q 819 272 818 294 q 817 226 819 249 q 797 188 814 204 l 633 25 q 603 10 624 15 q 571 4 583 4 l 388 4 q 353 10 374 4 q 324 25 333 15 l 161 188 z "},"W":{"ha":965,"x_min":14,"x_max":949,"o":"m 29 188 l 14 219 l 14 860 q 38 905 14 886 q 85 924 61 924 q 116 915 101 924 q 141 892 131 906 q 158 861 151 878 q 164 829 164 844 l 164 624 l 182 593 l 271 499 q 287 468 279 490 q 294 435 294 446 l 294 231 q 300 213 294 222 q 314 196 306 204 q 331 182 322 188 q 347 176 340 176 q 370 185 360 176 q 388 207 381 194 q 401 233 396 219 q 406 257 406 247 l 406 860 q 413 883 406 871 q 432 903 421 894 q 456 918 443 913 q 479 924 468 924 q 510 915 496 924 q 534 892 524 906 q 551 861 544 878 q 557 829 557 844 l 557 231 q 565 216 557 228 q 576 199 572 204 q 622 164 596 172 q 679 156 647 156 q 722 163 700 156 q 760 182 743 169 q 788 213 776 194 q 799 257 799 232 l 799 860 q 806 883 799 871 q 825 903 814 894 q 849 918 836 913 q 872 924 861 924 q 904 915 890 924 q 928 892 918 906 q 943 863 938 879 q 949 829 949 846 l 949 251 q 943 217 949 238 q 928 188 938 197 l 765 25 q 735 10 756 15 q 701 4 715 4 l 256 4 q 223 10 243 4 q 193 25 203 15 l 29 188 z "},"X":{"ha":965,"x_min":14,"x_max":949,"o":"m 14 204 l 29 235 l 250 461 l 250 488 l 29 714 l 14 744 l 14 860 q 38 905 14 886 q 85 924 61 924 q 126 912 111 924 q 149 881 142 900 q 158 840 156 863 q 162 794 160 817 q 167 753 164 772 q 182 724 171 735 l 335 571 q 362 556 344 561 q 392 550 379 550 l 571 550 q 599 557 582 550 q 624 571 615 564 l 775 724 q 795 762 792 740 q 799 806 799 783 q 801 850 799 828 q 818 892 803 872 q 834 910 822 899 q 849 924 846 922 l 867 924 q 907 913 892 924 q 932 883 922 901 q 945 844 942 865 q 949 803 949 824 q 946 756 949 783 q 928 714 943 729 l 707 488 l 707 461 l 928 235 q 947 192 944 218 q 949 146 949 167 q 945 106 949 126 q 933 67 942 85 q 910 37 925 49 q 872 25 894 25 q 827 44 844 25 q 801 89 810 63 q 801 105 801 93 q 799 131 800 117 q 798 156 799 144 q 797 172 797 168 q 790 200 794 185 q 775 225 785 215 l 624 378 q 609 387 619 381 q 592 393 599 393 l 365 393 q 345 385 357 393 q 322 367 333 378 q 302 345 310 357 q 294 325 294 333 l 294 119 q 281 69 294 90 q 247 33 268 47 q 201 11 226 18 q 150 4 175 4 q 83 15 113 4 q 29 57 53 25 q 20 74 26 61 q 14 89 14 86 l 14 204 z "},"Y":{"ha":839,"x_min":14,"x_max":822,"o":"m 35 582 l 19 614 q 17 697 18 663 q 15 768 17 732 q 14 829 14 804 l 14 835 q 19 865 14 849 q 35 894 25 881 q 57 915 44 907 q 85 924 69 924 q 144 894 121 924 q 167 829 167 865 l 167 639 q 174 615 167 632 q 188 592 181 599 l 339 440 q 378 422 354 425 q 421 418 401 418 q 461 422 440 418 q 497 440 482 425 l 649 592 q 664 619 657 599 q 671 650 671 639 l 671 839 q 676 867 671 853 q 692 894 682 882 q 714 915 701 907 q 740 924 726 924 q 800 894 778 924 q 822 829 822 865 l 822 644 q 816 612 822 633 q 801 582 810 590 l 576 351 q 568 338 574 349 q 563 325 563 328 l 563 119 q 549 68 563 90 q 514 32 535 46 q 467 11 493 18 q 415 4 440 4 q 349 15 378 4 q 297 57 321 25 q 286 74 293 63 q 279 88 279 86 l 279 299 q 269 329 279 310 q 256 356 258 349 l 35 582 z "},"Z":{"ha":971,"x_min":14,"x_max":954,"o":"m 35 75 q 34 92 35 82 q 40 110 33 103 l 713 788 l 240 788 q 223 781 233 788 q 208 771 213 775 q 190 755 203 767 q 163 730 178 743 q 136 704 149 717 q 119 688 124 692 q 105 681 113 681 q 90 682 97 682 q 44 701 63 682 q 19 744 26 719 q 19 762 19 750 q 17 788 18 774 q 15 813 15 801 q 14 829 14 825 l 14 835 q 21 867 14 849 q 40 901 28 885 q 67 928 51 917 q 99 939 82 939 l 839 944 q 872 939 856 944 q 902 924 889 933 q 924 900 915 914 q 933 868 933 886 q 934 853 933 861 q 928 840 935 846 l 256 161 l 267 157 l 707 157 q 735 165 718 157 q 760 178 753 174 q 792 219 785 196 q 800 268 799 243 q 804 319 801 293 q 824 367 807 344 q 840 385 828 374 q 854 399 851 397 l 872 399 q 932 369 910 399 q 954 304 954 340 l 954 119 q 944 76 954 97 q 919 40 935 56 q 882 14 903 24 q 839 4 861 4 l 124 4 q 93 10 108 4 q 65 24 78 15 q 43 47 51 33 q 35 75 35 60 z "},"[":{"ha":486,"x_min":14,"x_max":471,"o":"m 375 942 q 408 937 392 942 q 439 922 425 932 q 462 899 453 913 q 471 867 471 885 q 462 835 471 849 q 439 812 453 821 q 408 797 425 803 q 375 790 392 792 q 347 790 367 790 q 305 788 328 789 q 262 785 282 786 q 233 785 242 785 q 189 758 213 779 q 165 711 165 736 l 165 628 l 182 596 q 199 579 186 592 q 224 552 211 567 q 249 525 238 538 q 265 507 261 513 q 270 500 267 506 q 276 492 274 494 q 288 470 281 485 q 294 454 294 456 l 294 235 q 301 220 294 232 q 313 203 308 208 q 356 171 329 182 q 409 149 383 160 q 453 124 435 139 q 471 81 471 110 q 462 49 471 63 q 439 25 453 35 q 408 10 425 15 q 375 4 392 4 l 124 4 q 88 12 107 4 q 52 33 68 19 q 25 63 36 46 q 14 99 14 79 l 14 847 q 22 876 14 860 q 43 905 31 892 q 70 928 56 918 q 97 938 85 938 l 375 942 l 375 942 z "},"\\":{"ha":929,"x_min":13,"x_max":914,"o":"m 13 863 q 26 908 13 890 q 69 925 40 925 l 83 925 q 99 918 92 925 l 907 110 q 914 94 914 103 l 914 81 q 899 40 914 56 q 857 25 883 25 q 842 24 850 25 q 829 31 835 24 l 14 844 q 13 852 14 846 q 13 863 13 858 z "},"]":{"ha":486,"x_min":14,"x_max":469,"o":"m 14 81 q 35 128 14 114 q 83 152 56 142 q 139 176 111 163 q 182 224 167 190 q 185 233 183 226 q 186 240 186 239 l 186 707 q 180 726 186 711 q 171 743 174 740 q 126 776 153 765 q 75 797 100 786 q 32 822 50 807 q 14 867 14 836 q 33 912 14 894 q 76 938 51 929 q 106 938 85 938 q 150 940 126 939 q 194 941 174 940 q 224 942 215 942 l 226 942 q 263 933 243 942 q 300 912 282 925 q 330 881 318 899 q 342 847 342 864 l 342 628 l 354 601 q 415 542 383 572 q 464 471 447 511 q 468 462 467 468 q 469 454 469 456 l 469 99 q 458 63 469 79 q 431 33 447 46 q 396 12 415 19 q 360 4 376 4 l 108 4 q 75 10 92 4 q 45 25 58 15 q 23 49 32 35 q 14 81 14 63 z "},"^":{"ha":665,"x_min":13,"x_max":650,"o":"m 14 607 q 13 622 14 614 q 19 635 13 629 l 303 919 q 317 925 308 925 l 332 925 l 346 925 q 360 919 354 925 l 643 635 q 650 621 650 628 l 650 607 q 635 567 650 582 q 594 551 619 551 q 579 551 588 551 q 565 557 571 550 l 344 772 l 318 772 l 97 557 q 84 551 92 550 q 69 551 76 551 q 29 567 44 551 q 14 607 14 582 z "},"`":{"ha":308,"x_min":14,"x_max":292,"o":"m 129 610 q 68 669 100 639 q 19 740 36 700 q 16 749 18 743 q 14 850 14 756 q 21 871 14 857 q 29 888 28 885 q 58 920 42 908 q 94 938 75 932 q 134 944 113 943 q 179 944 156 944 q 216 937 196 944 q 253 917 236 929 q 281 887 269 904 q 292 850 292 869 l 292 563 q 285 535 292 549 q 269 509 279 521 q 245 490 258 497 q 218 483 232 483 q 178 497 192 483 q 156 531 164 511 q 144 572 149 550 q 129 610 139 593 z "},"a":{"ha":739,"x_min":14,"x_max":724,"o":"m 722 217 q 723 199 722 208 q 724 179 724 189 l 724 167 l 724 126 q 722 90 724 108 q 713 55 719 71 q 694 29 706 39 q 663 19 682 19 q 624 38 643 19 q 604 78 604 56 l 604 231 q 597 256 604 243 q 578 277 589 268 q 553 292 567 286 q 528 299 540 299 l 303 299 q 279 293 292 299 q 256 278 267 288 q 239 258 246 269 q 232 235 232 247 l 232 88 q 222 51 232 67 q 194 24 211 35 q 158 9 178 14 q 121 4 139 4 q 47 26 81 4 q 14 93 14 47 l 14 235 q 29 276 14 257 q 63 312 44 294 q 96 346 81 329 q 111 382 111 363 l 111 535 q 114 543 111 536 q 120 558 117 550 q 128 572 124 565 q 135 582 132 579 l 244 692 q 272 706 251 699 q 303 713 292 713 l 439 713 q 468 704 449 713 q 492 692 488 696 l 601 582 q 616 558 607 576 q 625 535 625 540 l 625 382 q 639 350 625 367 q 669 315 653 333 q 702 274 686 296 q 722 231 718 253 l 722 217 m 233 503 q 250 446 233 472 q 303 419 267 419 l 429 419 q 485 446 467 419 q 503 506 503 472 q 499 535 503 519 q 488 563 496 550 q 468 583 481 575 q 439 592 456 592 l 297 592 q 266 583 278 592 q 247 562 254 575 q 236 533 239 549 q 233 503 233 517 z "},"b":{"ha":739,"x_min":14,"x_max":722,"o":"m 76 10 q 31 41 49 19 q 14 93 14 63 l 14 629 q 42 688 14 664 q 103 713 69 713 l 439 713 q 468 704 449 713 q 492 692 488 696 l 601 582 q 617 556 613 571 q 623 526 621 542 q 626 494 625 510 q 633 467 628 479 q 656 432 642 447 q 685 401 671 417 q 711 369 700 386 q 722 329 722 351 l 722 199 q 715 163 722 183 q 696 131 707 142 l 597 31 q 567 12 586 19 q 533 4 547 4 l 103 4 q 90 6 100 4 q 76 10 81 8 m 233 208 q 237 181 233 196 q 248 154 240 167 q 268 133 256 142 q 297 125 281 125 l 539 125 q 567 133 556 125 q 587 154 579 142 q 599 181 594 167 q 603 208 603 196 q 585 269 603 240 q 528 299 567 299 l 303 299 q 249 269 265 299 q 233 208 233 240 m 135 506 q 153 447 135 474 q 208 419 171 419 l 429 419 q 485 446 467 419 q 503 506 503 472 q 499 535 503 519 q 488 563 496 550 q 468 583 481 575 q 439 592 456 592 l 197 592 q 169 583 181 592 q 149 563 157 575 q 138 535 142 550 q 135 506 135 519 z "},"c":{"ha":724,"x_min":14,"x_max":708,"o":"m 707 553 q 695 523 707 532 q 665 514 683 514 q 629 526 644 514 q 600 553 614 539 q 570 581 586 568 q 533 593 554 593 l 197 593 q 168 584 181 593 q 149 562 156 575 q 138 533 142 549 q 135 504 135 518 q 150 454 135 475 q 183 415 165 433 q 217 377 201 396 q 232 335 232 358 l 232 183 q 239 163 232 174 q 256 144 246 153 q 278 131 267 136 q 297 125 289 125 l 533 125 q 570 138 554 125 q 600 165 586 150 q 629 192 614 179 q 665 204 644 204 q 708 161 708 204 q 706 145 708 153 q 697 131 704 138 l 597 31 q 567 12 586 19 q 533 4 547 4 l 197 4 q 167 13 185 4 q 140 31 150 21 l 35 136 q 21 163 28 143 q 14 193 14 182 l 14 529 q 22 560 14 543 q 40 588 31 578 l 146 692 q 172 706 153 699 q 203 714 192 714 l 533 714 q 567 706 547 714 q 597 688 586 697 l 697 588 q 705 570 703 581 q 707 553 707 560 z "},"d":{"ha":739,"x_min":14,"x_max":722,"o":"m 76 10 q 31 41 49 19 q 14 93 14 63 l 14 629 q 22 661 14 646 q 43 688 31 676 q 72 706 56 699 q 103 713 88 713 l 533 713 q 567 705 547 713 q 597 686 586 697 l 696 588 q 715 557 707 576 q 722 524 722 538 l 722 199 q 715 163 722 183 q 696 131 707 142 l 597 31 q 567 12 586 19 q 533 4 547 4 l 103 4 q 90 6 100 4 q 76 10 81 8 m 135 504 q 150 454 135 475 q 183 415 165 433 q 217 377 201 396 q 232 335 232 358 l 232 183 q 239 163 232 174 q 256 144 246 153 q 278 131 267 136 q 297 125 289 125 l 539 125 q 581 146 560 125 q 601 188 601 167 l 601 524 q 583 569 601 547 q 539 592 564 592 l 197 592 q 168 583 181 592 q 149 562 156 575 q 138 533 142 549 q 135 504 135 518 z "},"e":{"ha":724,"x_min":14,"x_max":708,"o":"m 708 653 q 690 614 708 633 q 650 594 671 594 l 197 594 q 182 588 196 594 q 161 576 168 581 q 139 544 143 565 q 135 506 135 524 q 153 445 135 474 q 208 417 171 417 l 654 417 q 691 397 674 417 q 708 358 708 376 q 691 321 708 340 q 654 301 674 301 l 303 301 q 271 292 283 301 q 250 269 258 283 q 238 239 242 256 q 235 208 235 222 q 238 171 235 190 q 261 140 242 151 q 282 129 268 136 q 297 122 296 122 l 650 122 q 691 102 674 122 q 708 61 708 82 q 683 20 708 36 q 633 4 658 4 l 197 4 q 167 13 185 4 q 140 31 150 21 l 35 136 q 21 163 28 143 q 14 193 14 182 l 14 529 q 22 560 14 543 q 40 588 31 578 l 146 692 q 172 706 153 699 q 203 714 192 714 l 633 714 q 683 697 658 714 q 708 653 708 679 z "},"f":{"ha":724,"x_min":14,"x_max":708,"o":"m 708 653 q 690 614 708 633 q 650 594 671 594 l 197 594 q 182 588 196 594 q 161 576 168 581 q 139 544 143 565 q 135 506 135 524 q 153 445 135 474 q 208 417 171 417 l 654 417 q 691 397 674 417 q 708 358 708 376 q 691 321 708 340 q 654 301 674 301 l 303 301 q 280 295 292 301 q 257 279 268 289 q 239 258 246 269 q 232 235 232 246 l 232 89 q 222 51 232 67 q 194 24 211 35 q 158 9 178 14 q 122 4 139 4 q 48 26 82 4 q 14 93 14 47 l 14 529 q 22 560 14 543 q 40 588 31 578 l 146 692 q 172 706 153 699 q 203 714 192 714 l 633 714 q 683 697 658 714 q 708 653 708 679 z "},"g":{"ha":739,"x_min":14,"x_max":722,"o":"m 707 653 q 689 613 707 632 q 649 594 671 594 l 197 594 q 182 588 196 594 q 161 576 168 581 q 139 544 143 565 q 135 504 135 522 q 150 454 135 475 q 183 415 165 433 q 217 377 201 396 q 232 335 232 358 l 232 183 q 239 163 232 174 q 256 144 246 153 q 278 131 267 136 q 297 125 289 125 l 539 125 q 567 133 556 125 q 587 154 579 142 q 599 181 594 167 q 603 208 603 196 q 590 261 603 243 q 556 288 576 279 q 513 299 536 296 q 469 308 489 303 q 435 324 449 314 q 422 358 422 335 q 439 396 422 378 q 476 414 456 414 l 654 414 q 679 405 667 414 q 701 383 692 396 q 717 356 711 371 q 722 329 722 342 l 722 199 q 715 163 722 183 q 696 131 707 142 l 597 31 q 567 12 586 19 q 533 4 547 4 l 203 4 q 169 12 188 4 q 140 31 151 19 l 35 135 q 21 163 28 143 q 14 193 14 182 l 14 529 q 22 560 14 543 q 40 588 31 578 l 144 692 q 172 706 153 699 q 203 713 192 713 l 633 713 q 683 696 658 713 q 707 653 707 679 z "},"h":{"ha":739,"x_min":14,"x_max":722,"o":"m 74 697 q 113 679 94 697 q 132 639 132 661 l 132 482 q 140 458 132 469 q 158 438 147 447 q 183 424 169 429 q 208 419 197 419 l 528 419 q 578 440 553 419 q 604 488 604 460 l 604 639 q 623 679 604 661 q 663 697 642 697 q 706 673 689 697 q 722 624 722 649 l 722 99 q 707 46 722 72 q 663 19 692 19 q 624 38 643 19 q 604 78 604 56 l 604 231 q 597 256 604 243 q 578 277 589 268 q 553 292 567 286 q 528 299 540 299 l 303 299 q 280 293 292 299 q 257 278 268 288 q 239 258 246 269 q 232 235 232 247 l 232 88 q 222 51 232 67 q 194 24 211 35 q 158 9 178 14 q 121 4 139 4 q 83 10 101 4 q 49 26 64 15 q 24 54 33 38 q 14 93 14 71 l 14 629 q 31 675 14 653 q 74 697 49 697 z "},"i":{"ha":244,"x_min":14,"x_max":228,"o":"m 74 694 q 114 674 96 694 q 132 631 132 653 l 132 479 q 147 443 132 460 q 180 409 163 426 q 213 374 197 392 q 228 333 228 356 l 228 93 q 194 26 228 49 q 121 4 161 4 q 84 9 103 4 q 49 24 65 14 q 24 50 33 35 q 14 88 14 65 l 14 626 q 31 674 14 653 q 74 694 49 694 z "},"j":{"ha":739,"x_min":14,"x_max":722,"o":"m 14 214 q 17 244 14 228 q 26 273 19 260 q 45 295 33 286 q 74 304 57 304 q 109 291 97 304 q 126 258 121 278 q 133 215 131 238 q 140 172 135 192 q 158 138 146 151 q 197 125 171 125 l 439 125 q 459 131 447 125 q 481 144 471 136 q 497 163 490 153 q 504 183 504 174 l 504 635 q 524 678 504 658 q 565 697 543 697 q 586 694 576 697 q 601 682 596 692 q 616 654 607 672 q 625 635 625 636 l 625 482 q 640 444 625 461 q 674 410 656 428 q 707 373 692 392 q 722 329 722 354 l 722 193 q 715 160 722 179 q 696 131 707 140 l 597 31 q 567 12 586 19 q 533 4 547 4 l 203 4 q 169 12 188 4 q 140 31 151 19 l 35 135 q 17 172 19 150 q 14 214 14 194 z "},"k":{"ha":739,"x_min":14,"x_max":722,"o":"m 74 697 q 113 679 94 697 q 132 639 132 661 l 132 482 q 141 453 132 465 q 164 434 150 442 q 193 422 178 426 q 221 418 208 418 q 251 422 235 418 q 276 435 267 425 l 533 686 q 548 695 540 693 q 565 697 556 697 q 607 656 607 697 l 607 642 q 601 629 607 635 l 403 424 l 407 417 l 554 417 l 586 397 l 707 278 q 718 254 714 271 q 722 231 722 238 l 722 99 q 707 46 722 72 q 663 19 692 19 q 624 38 643 19 q 604 78 604 56 l 604 231 q 597 256 604 243 q 578 277 589 268 q 553 292 567 286 q 528 299 540 299 l 303 299 q 280 293 292 299 q 257 278 268 288 q 239 258 246 269 q 232 235 232 247 l 232 88 q 222 51 232 67 q 194 24 211 35 q 158 9 178 14 q 121 4 139 4 q 83 10 101 4 q 49 26 64 15 q 24 54 33 38 q 14 93 14 71 l 14 629 q 31 675 14 653 q 74 697 49 697 z "},"l":{"ha":724,"x_min":14,"x_max":708,"o":"m 74 699 q 113 680 94 699 q 132 640 132 661 l 132 488 q 147 446 132 464 q 181 411 163 428 q 216 376 200 394 q 232 335 232 358 l 232 183 q 240 163 232 174 q 258 144 247 153 q 279 128 268 135 q 297 122 290 122 l 650 122 q 690 103 671 122 q 708 64 708 85 q 683 21 708 38 q 633 4 658 4 l 203 4 q 169 12 188 4 q 140 31 151 19 l 35 136 q 21 163 28 143 q 14 193 14 182 l 14 629 q 31 676 14 653 q 74 699 49 699 z "},"m":{"ha":739,"x_min":14,"x_max":722,"o":"m 663 19 q 624 38 643 19 q 604 78 604 56 l 604 524 q 596 553 604 540 q 575 576 588 567 q 547 589 563 585 q 518 593 532 593 q 485 589 501 593 q 456 576 469 585 q 435 553 443 567 q 426 518 426 539 l 426 72 q 406 36 426 53 q 368 19 386 19 q 330 36 349 19 q 311 72 311 53 l 311 518 q 303 552 311 538 q 281 576 294 567 q 251 589 267 585 q 218 593 235 593 q 156 570 178 593 q 135 507 135 547 q 149 456 135 476 q 182 416 164 435 q 215 378 200 397 q 229 335 229 360 l 229 88 q 219 50 229 65 q 194 24 210 35 q 158 9 178 14 q 121 4 139 4 q 83 10 101 4 q 49 26 64 15 q 24 54 33 38 q 14 93 14 71 l 14 529 q 22 560 14 543 q 40 588 31 578 l 140 686 q 169 705 150 697 q 203 713 189 713 l 533 713 q 567 705 547 713 q 597 686 586 697 l 696 588 q 715 557 707 576 q 722 524 722 538 l 722 93 q 706 44 722 68 q 663 19 690 19 z "},"n":{"ha":739,"x_min":14,"x_max":722,"o":"m 663 19 q 624 38 643 19 q 604 78 604 56 l 604 529 q 598 550 604 539 q 582 571 592 561 q 560 586 572 581 q 539 592 549 592 l 197 592 q 169 583 181 592 q 149 563 157 575 q 138 535 142 550 q 135 507 135 521 q 149 456 135 476 q 182 416 164 435 q 215 378 200 397 q 229 335 229 360 l 229 88 q 219 50 229 65 q 194 24 210 35 q 158 9 178 14 q 121 4 139 4 q 83 10 101 4 q 49 26 64 15 q 24 54 33 38 q 14 93 14 71 l 14 529 q 22 560 14 543 q 40 588 31 578 l 140 686 q 169 705 150 697 q 203 713 189 713 l 533 713 q 567 705 547 713 q 597 686 586 697 l 696 588 q 715 557 707 576 q 722 524 722 538 l 722 93 q 706 44 722 68 q 663 19 690 19 z "},"o":{"ha":739,"x_min":14,"x_max":722,"o":"m 176 10 q 158 19 172 11 q 140 31 144 26 l 40 131 q 22 160 29 142 q 14 193 14 178 l 14 529 q 22 560 14 543 q 40 588 31 578 l 140 686 q 169 705 150 697 q 203 713 189 713 l 533 713 q 567 705 547 713 q 597 686 586 697 l 696 588 q 715 557 707 576 q 722 524 722 538 l 722 193 q 715 160 722 179 q 696 131 707 140 l 597 31 q 567 12 586 19 q 533 4 547 4 l 203 4 q 190 6 200 4 q 176 10 181 8 m 182 131 q 197 125 185 129 l 539 125 q 581 146 561 125 q 601 188 601 167 l 601 329 q 594 349 601 335 q 586 367 588 364 q 575 377 583 368 q 556 397 567 386 q 538 418 546 408 q 528 429 529 428 q 511 474 515 446 q 501 528 507 501 q 483 573 496 554 q 439 592 469 592 l 197 592 q 156 572 176 592 q 135 529 135 551 l 135 188 q 150 152 135 167 q 182 131 165 138 z "},"p":{"ha":739,"x_min":14,"x_max":722,"o":"m 722 506 q 711 452 722 476 q 682 406 700 428 q 643 366 664 385 q 601 329 622 347 q 594 324 600 328 q 586 319 589 321 q 567 308 579 315 q 554 301 556 301 l 303 301 q 280 295 292 301 q 257 279 268 289 q 239 258 246 269 q 232 235 232 246 l 232 83 q 223 63 232 81 q 208 36 214 44 q 169 10 196 15 q 121 4 143 4 q 83 10 101 4 q 49 26 64 15 q 24 54 33 38 q 14 93 14 71 l 14 624 q 41 685 14 658 q 103 713 68 713 l 533 713 q 567 705 547 713 q 597 686 586 697 l 696 588 q 717 549 711 572 q 722 506 722 525 m 135 506 q 153 447 135 474 q 208 419 171 419 l 528 419 q 585 448 567 419 q 603 508 603 476 q 599 535 603 521 q 587 563 594 550 q 567 583 579 575 q 539 592 556 592 l 197 592 q 169 583 181 592 q 149 563 157 575 q 138 535 142 550 q 135 506 135 519 z "},"q":{"ha":739,"x_min":14,"x_max":722,"o":"m 690 161 q 695 143 690 151 q 706 126 700 135 q 717 108 713 118 q 722 89 722 99 q 709 44 722 61 q 676 19 696 28 q 633 7 656 10 q 589 4 610 4 l 547 4 q 507 15 526 4 q 488 27 500 18 q 465 36 476 36 q 446 31 456 36 q 427 20 436 26 q 408 9 418 14 q 386 4 397 4 l 203 4 q 169 12 188 4 q 140 31 151 19 l 40 131 q 22 160 29 142 q 14 193 14 178 l 14 529 q 22 560 14 543 q 40 588 31 578 l 140 686 q 169 705 150 697 q 203 713 189 713 l 533 713 q 567 705 547 713 q 597 686 586 697 l 696 588 q 715 557 707 576 q 722 524 722 538 l 722 240 q 717 219 722 229 q 706 199 713 208 q 695 181 700 190 q 690 161 690 171 m 182 131 q 197 125 185 129 l 339 125 q 358 132 335 125 q 376 140 374 139 q 388 150 379 142 q 418 179 401 164 q 439 199 435 194 q 483 215 456 211 q 537 225 511 219 q 582 244 563 231 q 601 288 601 257 l 601 529 q 581 572 601 551 q 539 592 561 592 l 197 592 q 156 572 176 592 q 135 529 135 551 l 135 188 q 150 152 135 167 q 182 131 165 138 z "},"r":{"ha":739,"x_min":14,"x_max":722,"o":"m 663 19 q 624 38 643 19 q 604 78 604 56 l 604 231 q 597 256 604 243 q 578 278 590 268 q 553 293 567 288 q 528 299 540 299 l 303 299 q 280 293 292 299 q 257 278 268 288 q 239 258 246 269 q 232 235 232 247 l 232 83 q 223 63 232 81 q 208 36 214 44 q 169 10 196 15 q 121 4 143 4 q 83 10 101 4 q 49 26 64 15 q 24 54 33 38 q 14 93 14 71 l 14 624 q 41 685 14 658 q 103 713 68 713 l 439 713 q 468 704 449 713 q 492 692 488 696 l 601 582 q 616 558 607 576 q 625 535 625 540 l 625 382 q 640 348 625 365 q 674 313 656 331 q 707 274 692 294 q 722 231 722 254 l 722 93 q 706 44 722 68 q 663 19 690 19 m 135 506 q 153 447 135 474 q 208 419 171 419 l 433 419 q 466 428 453 419 q 488 449 479 436 q 499 479 496 463 q 503 511 503 496 q 487 564 503 536 q 439 592 471 592 l 197 592 q 169 583 181 592 q 149 563 157 575 q 138 535 142 550 q 135 506 135 519 z "},"s":{"ha":739,"x_min":14,"x_max":722,"o":"m 29 161 q 72 204 29 204 q 108 192 93 204 q 138 165 124 179 q 167 138 151 150 q 203 125 182 125 l 439 125 q 467 133 456 125 q 487 153 479 140 q 499 180 494 165 q 503 207 503 194 q 499 240 503 224 q 486 270 494 257 q 464 292 478 283 q 429 301 450 301 l 82 301 q 58 310 69 301 q 36 333 46 319 q 20 361 26 346 q 14 388 14 376 l 14 529 q 22 560 14 543 q 40 588 31 578 l 140 686 q 169 705 150 697 q 203 713 189 713 l 533 713 q 567 705 547 713 q 597 686 586 697 l 696 588 q 705 572 703 579 q 707 556 707 564 q 665 513 707 513 q 629 525 644 513 q 600 552 614 538 q 570 579 586 567 q 533 592 554 592 l 197 592 q 169 583 181 592 q 149 563 157 575 q 138 535 142 550 q 135 508 135 521 q 139 476 135 492 q 151 447 143 460 q 174 425 160 433 q 208 417 188 417 l 554 417 l 586 397 l 707 278 q 720 246 718 267 q 722 211 722 225 q 717 169 722 192 q 696 131 711 146 l 597 31 q 567 12 586 19 q 533 4 549 4 l 203 4 q 169 12 188 4 q 140 31 151 19 l 40 131 q 31 145 33 138 q 29 161 29 153 z "},"t":{"ha":708,"x_min":14,"x_max":693,"o":"m 14 654 q 38 697 14 681 q 88 714 63 714 l 618 714 q 668 697 643 714 q 693 653 693 679 q 674 615 693 633 q 635 596 656 596 l 482 596 q 452 587 465 596 q 430 565 439 578 q 417 535 421 551 q 413 506 413 519 q 428 458 413 478 q 460 419 443 438 q 493 383 478 401 q 508 340 508 364 l 508 78 q 498 44 508 58 q 472 22 488 31 q 437 8 456 13 q 403 4 418 4 q 353 12 376 4 q 314 40 329 19 q 302 59 310 47 q 294 72 294 71 l 294 519 q 288 544 294 531 q 272 569 282 557 q 249 588 263 581 q 224 596 236 596 l 72 596 q 32 615 50 596 q 14 654 14 633 z "},"u":{"ha":739,"x_min":14,"x_max":722,"o":"m 74 697 q 113 679 94 697 q 132 639 132 661 l 132 488 q 147 449 132 468 q 181 412 163 431 q 216 374 200 393 q 232 335 232 354 l 232 183 q 239 163 232 174 q 256 144 246 153 q 277 131 265 136 q 297 125 289 125 l 539 125 q 560 131 549 125 q 582 147 572 138 q 598 167 592 156 q 604 188 604 178 l 604 639 q 623 679 604 661 q 663 697 642 697 q 706 673 689 697 q 722 624 722 649 l 722 193 q 715 160 722 179 q 696 131 707 140 l 597 31 q 567 12 586 19 q 533 4 549 4 l 203 4 q 169 12 188 4 q 140 31 151 19 l 40 131 q 22 160 29 142 q 14 193 14 178 l 14 624 q 30 674 14 650 q 74 697 46 697 z "},"v":{"ha":739,"x_min":14,"x_max":722,"o":"m 124 714 q 159 709 140 714 q 194 694 178 704 q 221 669 210 685 q 232 635 232 654 l 232 183 q 239 163 232 174 q 256 144 246 153 q 277 131 265 136 q 297 125 289 125 l 439 125 q 483 144 469 125 q 501 190 496 164 q 511 243 507 215 q 528 288 515 271 q 538 299 529 290 q 556 319 546 308 q 575 338 567 329 q 586 350 583 347 q 597 371 590 357 q 604 388 604 385 l 604 639 q 623 679 604 661 q 663 697 642 697 q 706 673 689 697 q 722 624 722 649 l 722 388 q 713 354 722 371 q 692 323 704 338 q 666 295 679 308 q 644 272 653 282 q 629 240 632 257 q 625 203 626 222 q 619 167 624 185 q 601 135 615 149 l 492 25 q 468 13 488 21 q 439 4 449 4 l 297 4 q 268 13 288 4 q 244 25 249 21 l 135 135 q 119 162 124 147 q 113 192 115 176 q 110 222 111 207 q 103 251 108 238 q 79 285 94 269 q 49 316 64 300 q 24 349 35 332 q 14 388 14 367 l 14 624 q 24 663 14 646 q 49 691 33 679 q 85 708 65 703 q 124 714 104 714 z "},"w":{"ha":739,"x_min":14,"x_max":722,"o":"m 74 697 q 113 679 94 697 q 132 639 132 661 l 132 488 q 147 450 132 468 q 181 413 163 432 q 216 375 200 394 q 232 335 232 356 l 232 183 q 244 158 232 175 q 268 140 256 140 q 299 161 288 140 q 311 199 311 182 l 311 644 q 331 681 311 664 q 368 697 350 697 q 406 681 386 697 q 426 644 426 664 l 426 199 q 435 164 426 178 q 456 142 443 150 q 485 129 469 133 q 518 125 501 125 q 546 128 531 125 q 574 140 561 132 q 595 159 586 147 q 604 188 604 171 l 604 639 q 623 679 604 661 q 663 697 642 697 q 706 673 689 697 q 722 624 722 649 l 722 188 q 714 157 722 174 q 696 131 706 140 l 597 31 q 567 12 586 19 q 533 4 549 4 l 203 4 q 169 12 189 4 q 140 31 150 19 l 40 131 q 22 160 29 140 q 14 193 14 179 l 14 624 q 31 673 14 649 q 74 697 49 697 z "},"x":{"ha":739,"x_min":14,"x_max":724,"o":"m 14 111 q 19 155 14 132 q 40 193 25 178 q 190 350 188 346 q 193 356 192 354 l 193 358 l 193 361 q 190 367 192 364 q 188 372 188 371 l 40 524 q 19 563 25 539 q 14 606 14 586 q 17 635 14 619 q 27 665 19 651 q 46 688 35 679 q 74 697 57 697 q 114 678 103 697 q 129 633 125 658 q 137 581 133 607 q 156 540 140 554 l 256 440 q 281 426 264 432 q 308 419 297 419 l 433 419 q 458 426 442 419 q 481 440 474 433 l 581 540 q 599 581 596 554 q 607 633 603 607 q 622 678 611 658 q 663 697 633 697 q 692 688 681 697 q 711 664 704 678 q 721 633 718 650 q 724 603 724 617 q 717 560 724 582 q 696 524 711 539 l 550 372 q 547 367 549 371 q 544 361 544 364 l 544 358 l 544 356 q 547 350 544 354 q 550 346 549 346 l 696 193 q 717 155 711 178 q 722 113 722 132 q 719 81 722 97 q 710 51 717 65 q 692 28 703 38 q 663 19 681 19 q 622 38 633 19 q 607 83 611 57 q 599 136 603 110 q 581 178 596 163 l 481 278 q 457 292 474 285 q 429 299 440 299 l 303 299 q 280 293 292 299 q 257 278 268 288 q 239 258 246 269 q 232 235 232 247 l 232 83 q 221 47 232 63 q 193 23 210 32 q 157 9 176 14 q 121 4 138 4 q 42 33 71 4 q 14 111 14 63 z "},"y":{"ha":639,"x_min":14,"x_max":622,"o":"m 74 697 q 113 678 94 697 q 132 639 132 660 l 132 488 q 139 472 132 486 q 150 450 146 457 q 156 442 153 447 q 161 435 160 436 l 250 346 q 285 327 265 331 q 324 324 304 324 q 353 325 340 324 q 381 340 367 326 l 486 444 q 497 463 490 449 q 504 482 504 478 l 504 633 q 507 641 504 635 q 513 654 510 647 q 521 669 517 661 q 528 681 525 676 q 544 694 535 692 q 565 697 554 697 q 606 677 589 697 q 622 633 622 657 l 622 476 q 621 469 622 475 q 617 461 619 464 q 608 442 614 454 q 601 429 603 431 l 444 267 q 440 260 443 265 q 434 247 438 254 q 428 233 431 239 q 426 225 426 226 l 426 72 q 419 59 426 71 q 407 40 411 47 q 368 12 392 19 q 318 4 344 4 q 285 9 303 4 q 250 23 267 14 q 222 46 233 32 q 211 78 211 60 l 211 229 q 203 248 211 233 q 192 267 196 263 l 46 418 q 24 450 35 431 q 14 488 14 469 l 14 624 q 31 672 14 647 q 74 697 49 697 z "},"z":{"ha":739,"x_min":14,"x_max":722,"o":"m 29 63 q 31 78 29 71 q 40 93 33 86 l 533 592 l 203 592 q 167 579 182 592 q 138 552 151 567 q 108 525 124 538 q 72 513 93 513 q 43 522 54 513 q 26 544 32 531 q 17 574 19 558 q 14 606 14 590 q 19 643 14 624 q 37 678 25 663 q 65 703 49 693 q 103 713 82 713 l 633 713 q 682 697 657 713 q 707 654 707 681 q 706 638 707 646 q 696 624 704 631 l 203 125 l 539 125 q 578 138 565 125 q 596 172 590 151 q 603 215 601 192 q 611 258 606 238 q 628 291 617 278 q 663 304 639 304 q 706 280 689 304 q 722 231 722 256 l 722 93 q 696 31 722 58 q 633 4 669 4 l 103 4 q 54 20 79 4 q 29 63 29 36 z "},"":{"ha":950,"x_min":14,"x_max":935,"o":"m 19 89 q 19 131 19 101 q 17 196 18 161 q 15 261 15 231 q 14 304 14 292 l 14 310 q 21 340 14 322 q 35 367 28 358 l 124 461 q 139 489 132 469 q 146 519 146 508 l 146 708 q 154 738 146 718 q 167 761 163 757 l 329 924 l 361 940 l 839 944 q 872 939 856 944 q 903 924 889 933 q 926 900 917 914 q 935 868 935 886 q 928 838 935 849 q 903 814 921 828 q 872 799 886 803 q 839 793 858 794 q 797 789 821 790 q 752 781 774 788 q 715 761 731 775 q 697 719 700 747 q 697 703 697 715 q 694 679 696 692 q 692 656 693 667 q 692 640 692 644 q 718 588 700 607 q 760 560 736 569 q 813 549 785 551 q 871 546 842 547 q 915 520 896 538 q 935 475 935 503 q 928 444 935 454 q 903 419 921 433 q 856 401 879 404 q 796 394 832 397 q 764 390 781 393 q 733 378 747 386 q 709 358 719 371 q 697 325 699 346 q 697 309 697 321 q 694 285 696 297 q 692 261 693 272 q 692 246 692 250 q 718 194 700 213 q 760 166 736 175 q 813 155 785 157 q 871 151 842 153 q 915 126 896 143 q 935 81 935 108 q 926 49 935 63 q 903 25 917 35 q 872 10 889 15 q 839 4 856 4 l 650 4 q 619 12 638 4 q 583 32 600 19 q 553 59 565 44 q 542 89 542 74 l 542 299 q 535 327 542 311 q 517 358 528 343 q 493 383 507 372 q 465 393 479 393 l 371 393 q 349 386 361 393 q 326 369 336 379 q 308 347 315 358 q 300 325 300 335 l 300 119 q 286 68 300 90 q 251 32 272 46 q 204 11 231 18 q 153 4 178 4 q 72 23 110 4 q 19 89 33 42 m 297 640 q 342 571 308 592 q 421 550 375 550 q 508 583 476 550 q 540 672 540 617 q 536 706 540 686 q 523 744 532 726 q 500 775 514 763 q 465 788 486 788 l 371 788 q 348 781 360 788 q 327 764 336 774 q 311 742 318 754 q 303 719 304 729 q 302 703 303 715 q 300 679 301 692 q 298 656 299 667 q 297 640 297 644 z "},"":{"ha":724,"x_min":14,"x_max":708,"o":"m 29 278 q 42 289 33 281 q 59 308 50 297 q 76 327 68 318 q 88 340 85 336 q 93 349 89 343 q 101 363 97 356 q 108 375 106 369 q 111 382 111 381 l 111 535 q 120 558 111 540 q 135 582 129 576 l 244 692 q 272 706 251 699 q 303 714 292 714 l 633 714 q 683 697 658 714 q 708 653 708 681 q 695 617 708 628 q 662 602 682 607 q 618 594 642 597 q 574 584 594 592 q 541 559 554 576 q 528 508 528 542 q 541 456 528 474 q 574 429 554 438 q 618 418 594 421 q 662 410 642 415 q 695 393 682 404 q 708 358 708 382 q 695 324 708 335 q 662 308 682 313 q 618 300 642 303 q 574 288 594 297 q 541 261 554 279 q 528 208 528 243 q 541 158 528 175 q 574 133 554 140 q 618 122 594 125 q 662 115 642 119 q 695 99 682 110 q 708 64 708 88 q 684 20 708 36 q 633 4 660 4 l 497 4 q 464 12 481 4 q 435 32 447 19 q 414 60 422 44 q 406 93 406 76 l 406 240 q 396 267 406 256 q 373 285 386 278 q 344 295 360 292 q 318 299 329 299 q 290 294 306 299 q 263 283 275 290 q 241 263 250 275 q 232 235 232 251 l 232 83 q 221 47 232 63 q 193 23 210 32 q 157 9 176 14 q 121 4 138 4 q 83 10 101 4 q 49 26 64 15 q 24 54 33 38 q 14 93 14 71 l 14 231 q 19 254 14 240 q 29 278 24 268 m 233 511 q 253 444 233 471 q 318 418 274 418 q 383 442 363 418 q 403 508 403 467 l 403 540 q 371 581 394 568 q 319 593 347 593 q 257 572 281 593 q 233 511 233 551 z "},"":{"ha":0,"x_min":0,"x_max":0,"o":""},"":{"ha":694,"x_min":0,"x_max":0,"o":""}}}
